<?xml version="1.0" standalone="no"?>
<!DOCTYPE svg PUBLIC "-//W3C//DTD SVG 20010904//EN"
 "http://www.w3.org/TR/2001/REC-SVG-20010904/DTD/svg10.dtd">
<svg version="1.0" xmlns="http://www.w3.org/2000/svg"
 width="1829.000000pt" height="1829.000000pt" viewBox="0 0 1829.000000 1829.000000"
 preserveAspectRatio="xMidYMid meet">
<metadata>
Created by potrace 1.11, written by Peter Selinger 2001-2013
</metadata>
<g transform="translate(0.000000,1829.000000) scale(0.100000,-0.100000)"
fill="#000000" stroke="none">
<path d="M8641 17759 c-19 -6 -48 -20 -66 -32 -62 -43 -1196 -1218 -1212
-1255 -9 -21 -25 -91 -37 -156 l-22 -119 -105 -28 c-537 -140 -1007 -494
-1294 -974 -314 -526 -382 -1184 -184 -1764 94 -273 256 -548 436 -742 39 -41
63 -76 68 -99 12 -58 34 -92 98 -152 34 -32 59 -59 56 -61 -20 -15 -153 -129
-187 -161 -134 -126 -117 -301 41 -412 l28 -19 -45 -32 c-56 -40 -94 -99 -107
-166 -9 -45 -1 -115 54 -505 58 -404 68 -457 91 -497 52 -88 125 -124 257
-125 l85 0 53 -140 c83 -218 109 -244 286 -284 59 -14 110 -27 113 -31 4 -4 8
-196 10 -427 l4 -420 -33 -34 -33 -34 -267 0 -267 0 -4 88 c-3 76 -9 99 -40
165 -59 124 -153 210 -284 259 -57 22 -70 23 -419 23 -349 0 -362 -1 -419 -23
-157 -59 -263 -172 -310 -331 -14 -47 -16 -129 -16 -617 l0 -563 -37 -7 c-92
-17 -171 -87 -197 -175 -9 -29 -16 -62 -16 -74 0 -19 -15 -24 -202 -59 -227
-43 -249 -50 -302 -96 -74 -65 -81 -91 -81 -300 0 -206 6 -229 77 -297 66 -63
86 -67 368 -71 l254 -4 98 -93 c131 -126 140 -128 406 -121 108 3 213 5 232 4
19 -1 90 -2 158 -1 132 0 146 0 362 -1 164 -1 182 4 258 77 l42 42 334 -167
335 -167 5 -148 c3 -81 4 -161 4 -178 -1 -16 -2 -99 -1 -182 1 -174 1 -170 0
-375 0 -84 0 -166 1 -183 1 -16 -1 -105 -4 -197 l-5 -166 46 -177 c30 -114
128 -409 275 -823 188 -531 235 -655 268 -701 33 -47 38 -60 30 -81 -5 -14
-10 -47 -10 -75 0 -63 396 -1685 424 -1736 12 -22 141 -143 320 -300 l299
-263 94 -155 c102 -170 127 -199 195 -230 43 -20 64 -21 470 -21 251 0 440 4
461 10 19 5 53 23 75 39 l39 30 32 -25 c71 -54 69 -54 541 -54 l438 0 52 26
c62 31 84 58 191 236 l81 137 323 265 c221 181 329 276 344 303 14 25 85 322
209 868 151 669 187 843 186 899 -1 69 0 70 44 119 44 49 48 60 264 716 121
366 238 737 260 824 l41 158 -5 182 c-2 100 -4 191 -3 202 0 11 1 93 1 183 -1
89 -1 173 -1 187 0 14 0 98 1 188 0 89 0 171 -1 182 0 11 1 193 4 405 3 345 2
390 -13 430 -13 32 -50 77 -134 162 -138 139 -170 157 -300 165 l-90 6 0 74
c0 66 2 74 18 69 9 -2 119 -32 244 -65 263 -71 310 -75 386 -33 69 37 1111
1034 1138 1089 18 36 19 74 22 880 2 708 0 848 -12 877 -8 18 -98 153 -200
299 -102 146 -188 271 -191 279 -3 7 15 155 39 328 50 353 49 373 -7 457 -19
28 -50 58 -75 71 l-43 24 50 34 c118 80 151 242 71 352 -15 21 -75 78 -133
126 l-106 88 51 43 c106 91 137 178 103 291 -12 38 -47 88 -166 228 -83 99
-160 187 -172 196 -12 9 -61 39 -109 66 l-88 49 0 375 c0 342 -2 379 -19 415
-27 60 -96 115 -185 148 l-76 28 0 272 0 272 -150 838 c-98 548 -157 852 -169
876 -28 54 -1182 1236 -1234 1263 -32 17 -59 22 -112 22 -85 0 -117 -14 -202
-95 l-61 -59 -284 0 c-156 0 -298 -4 -317 -10 -53 -15 -110 -59 -138 -107 -13
-23 -61 -170 -106 -325 l-81 -283 -5 -280 -6 -280 -135 0 -135 0 -5 275 -6
275 -83 289 c-45 160 -89 302 -96 317 -21 40 -99 104 -143 117 -26 8 -135 12
-324 12 l-284 0 -49 51 c-70 71 -123 100 -192 105 -32 2 -73 -1 -92 -7z m170
-289 l87 -80 316 0 315 0 20 -67 c11 -38 47 -166 80 -285 l61 -217 0 -288 0
-289 63 -61 c34 -34 75 -67 90 -72 36 -14 377 -14 413 -1 14 6 55 41 90 77
l64 67 0 291 1 290 77 275 78 275 319 3 319 2 83 81 c54 54 88 79 101 77 16
-3 1125 -1130 1145 -1165 5 -7 75 -388 158 -846 l149 -832 0 -320 0 -320 134
-48 c74 -27 137 -56 140 -64 3 -8 6 -198 6 -422 l0 -407 138 -77 137 -78 133
-158 c72 -87 132 -165 132 -173 0 -8 -63 -68 -140 -133 -77 -65 -139 -122
-138 -125 2 -4 77 -69 168 -145 194 -162 230 -195 230 -211 0 -7 -80 -67 -177
-134 -98 -67 -184 -128 -191 -134 -10 -10 24 -30 169 -97 99 -46 185 -91 189
-100 7 -12 -57 -519 -85 -675 -5 -27 18 -64 210 -338 l215 -308 -1 -777 c0
-427 -3 -783 -7 -791 -8 -18 -1019 -987 -1042 -999 -9 -5 -108 17 -255 56
l-240 65 -109 106 -108 107 3 740 4 740 -122 3 -123 3 0 -313 0 -313 90 -90
90 -90 0 -650 0 -650 37 -87 37 -88 140 0 140 0 98 -98 98 -98 0 -318 c0 -187
-4 -325 -10 -336 -5 -10 -21 -21 -34 -24 -14 -3 -37 -11 -52 -16 l-27 -11 62
-63 61 -64 0 -94 c0 -60 -5 -100 -12 -110 -7 -8 -34 -24 -61 -33 l-47 -18 60
-63 60 -62 0 -101 c0 -112 -2 -115 -83 -141 l-38 -12 60 -63 61 -63 0 -112 c0
-161 -34 -284 -287 -1052 l-216 -656 -114 -129 -114 -128 50 -3 c27 -2 54 -9
61 -16 8 -11 -34 -213 -174 -837 -164 -732 -188 -826 -209 -844 -13 -11 -158
-131 -323 -266 l-299 -246 -98 -161 -99 -162 -402 0 -403 0 -82 135 c-46 74
-86 133 -91 130 -4 -2 -42 -63 -85 -135 l-77 -130 -402 2 -401 3 -97 160 -97
161 -301 264 c-165 146 -303 274 -306 285 -2 11 -92 377 -199 813 -107 436
-192 799 -189 807 5 11 22 15 65 15 32 0 59 2 59 5 0 3 -46 67 -103 143 l-103
137 -223 630 c-124 351 -240 696 -262 780 -35 137 -39 162 -39 280 l0 129 57
58 57 57 -30 11 c-16 6 -41 15 -56 21 l-28 11 0 111 0 111 56 57 57 58 -35 14
c-19 8 -44 18 -56 21 -21 7 -22 13 -22 120 l0 112 55 54 c30 30 55 57 55 60 0
4 -25 14 -55 24 l-55 17 -2 187 -3 187 -460 232 -460 231 -87 -84 -86 -85
-109 3 -108 3 -3 68 c-2 37 -6 67 -10 67 -4 0 -39 -32 -77 -70 l-70 -71 -90 3
-90 3 -3 198 -2 197 -65 0 -65 0 0 -188 c0 -133 -4 -192 -12 -200 -8 -8 -61
-12 -173 -12 l-160 0 -110 110 -110 110 -272 0 c-149 0 -278 3 -287 6 -14 5
-16 27 -16 139 0 94 4 135 13 142 6 6 139 34 295 64 l282 53 0 106 c0 69 4
110 12 118 8 8 49 12 120 12 l107 0 3 668 c3 613 5 670 21 705 24 52 83 114
131 140 40 21 51 22 381 22 330 0 341 -1 380 -22 53 -28 110 -88 132 -138 13
-31 18 -76 21 -207 l4 -168 418 0 418 0 97 103 97 102 -6 209 c-3 115 -6 365
-6 556 l0 347 -177 37 c-98 21 -183 43 -189 49 -6 7 -44 101 -84 210 l-73 197
-149 0 c-145 0 -149 1 -157 23 -4 12 -34 208 -65 435 -41 291 -55 416 -47 425
5 7 91 51 191 97 99 46 177 87 173 91 -4 4 -89 63 -188 131 -116 80 -181 131
-183 143 -2 15 44 58 182 173 101 84 191 161 199 170 15 16 6 26 -123 136
-131 110 -158 144 -131 160 5 4 7 -2 4 -13 -3 -14 27 -45 129 -131 73 -62 139
-118 146 -125 11 -10 -24 -45 -190 -184 -111 -95 -204 -177 -206 -184 -1 -7
86 -72 193 -145 107 -74 193 -137 191 -141 -3 -3 -85 -44 -183 -89 -99 -46
-184 -91 -189 -100 -8 -13 4 -126 47 -427 32 -225 58 -416 59 -422 0 -10 38
-13 153 -13 l154 0 73 -197 c40 -109 78 -203 84 -210 6 -6 90 -28 186 -48 96
-20 177 -39 180 -42 3 -2 6 -257 8 -566 l3 -562 -103 -108 -103 -107 -425 2
-425 3 -5 185 c-5 202 -10 218 -71 279 -17 18 -50 42 -73 54 -39 21 -54 22
-344 25 -365 4 -388 0 -467 -81 -31 -32 -55 -68 -63 -93 -9 -31 -12 -209 -12
-703 l0 -661 -119 0 c-99 0 -120 -3 -125 -16 -3 -9 -6 -63 -6 -120 0 -57 -3
-104 -7 -104 -26 1 -560 -105 -570 -113 -9 -7 -13 -46 -13 -132 0 -103 3 -124
16 -129 9 -3 138 -6 287 -6 l272 0 110 -110 110 -110 155 2 155 3 3 198 2 197
80 0 80 0 0 -184 c0 -101 3 -191 6 -200 5 -13 23 -16 88 -16 l81 0 80 80 80
81 5 -78 5 -78 99 -3 100 -3 88 88 88 88 470 -235 470 -235 0 -187 0 -186 53
-17 c28 -10 56 -21 61 -26 5 -4 -18 -36 -53 -72 l-61 -64 0 -100 0 -100 60
-22 c33 -12 60 -25 60 -29 0 -4 -27 -34 -60 -67 l-60 -59 0 -102 0 -103 55
-20 c31 -12 61 -21 68 -21 6 0 -19 -30 -56 -68 l-67 -68 0 -118 c0 -106 4
-133 41 -274 36 -136 458 -1354 491 -1415 6 -12 58 -84 115 -160 l104 -137
-70 0 c-38 0 -72 -3 -74 -7 -2 -5 35 -168 83 -363 48 -195 138 -561 200 -812
l112 -458 287 -251 c157 -138 296 -263 309 -278 12 -14 62 -92 110 -173 l87
-148 391 0 391 0 88 146 c48 80 90 142 95 137 4 -4 44 -70 89 -146 l82 -137
396 2 396 3 96 159 96 158 322 265 322 265 16 72 c9 39 92 406 184 816 109
484 165 749 159 757 -6 7 -36 13 -68 15 l-59 3 123 137 122 137 212 643 c116
354 227 704 247 779 31 121 35 149 35 264 l0 129 -62 63 c-34 34 -60 64 -57
66 2 2 29 12 59 23 l55 19 3 104 3 105 -63 63 c-34 34 -60 64 -57 66 2 3 29
13 59 25 l55 20 3 103 3 103 -63 63 c-34 34 -59 65 -57 68 3 3 30 13 60 24
l54 18 3 329 2 328 -87 88 -87 87 -144 3 -145 3 -38 85 -38 85 0 655 -1 655
-90 90 -90 90 0 322 0 323 135 0 135 0 0 -753 0 -752 98 -96 97 -96 237 -62
c131 -35 242 -61 249 -59 6 2 242 224 524 493 l514 490 0 789 1 788 -206 295
c-113 162 -207 300 -210 307 -3 7 16 160 41 340 25 181 43 340 40 355 -5 24
-27 38 -195 116 l-189 88 102 70 c235 162 291 203 293 212 2 6 -89 87 -201
180 -112 94 -204 173 -204 176 -1 3 64 61 144 129 80 68 144 127 143 131 -2 5
-61 78 -132 162 l-129 154 -143 82 -144 82 0 418 0 418 -82 31 c-46 17 -109
41 -140 52 l-58 21 -1 347 0 347 -147 811 -147 811 -558 574 c-307 316 -565
578 -573 584 -10 7 -33 -9 -96 -72 l-83 -83 -319 -2 -319 -3 -79 -280 -78
-280 0 -285 0 -286 -75 -74 -75 -75 -202 -3 c-111 -2 -212 -1 -225 3 -13 3
-55 35 -93 71 l-70 66 0 289 0 288 -76 273 c-41 150 -77 279 -79 286 -3 9 -77
12 -322 12 l-318 0 -80 80 c-44 44 -84 80 -90 80 -9 0 -341 -339 -1003 -1021
l-141 -146 -31 -168 c-16 -93 -32 -171 -35 -173 -9 -10 -5 23 24 186 l30 163
163 168 c811 835 975 1001 987 1001 8 0 53 -36 102 -80z m-128 -37 c-2 -16
-37 -352 -78 -748 -41 -396 -77 -741 -80 -766 l-6 -46 -82 33 c-45 18 -122 45
-172 59 -87 25 -294 65 -339 65 -16 0 -60 44 -162 161 -76 89 -139 167 -139
174 0 9 1050 1095 1059 1095 1 0 1 -12 -1 -27z m3229 -480 c271 -280 511 -527
532 -550 l37 -42 -418 -490 c-266 -313 -419 -485 -421 -473 -1 9 -51 460 -112
1002 -60 542 -112 1002 -115 1023 -3 20 -4 37 -2 37 2 0 227 -228 499 -507z
m-2432 -239 c0 -435 3 -639 11 -672 11 -41 29 -64 158 -194 116 -116 154 -148
186 -157 53 -14 382 -14 426 0 37 12 310 274 335 321 12 23 14 132 14 678 l0
650 298 0 297 0 201 -999 201 -1000 -596 -417 c-328 -230 -626 -433 -662 -451
-91 -45 -175 -63 -294 -63 -147 0 -254 32 -388 118 -46 30 -59 44 -68 75 -135
494 -455 914 -896 1173 -54 32 -99 58 -100 59 -1 0 63 335 143 744 79 410 144
748 144 753 0 4 133 8 295 8 l295 0 0 -626z m-1764 -524 c124 -144 129 -150
116 -150 -14 0 -226 247 -230 268 -5 20 -12 28 114 -118z m4568 -153 c-120
-138 -310 -359 -422 -490 -113 -131 -207 -235 -210 -233 -8 8 2 20 433 525
236 277 411 475 413 466 2 -8 -94 -129 -214 -268z m-4599 103 l83 -95 -106 -6
c-59 -4 -108 -6 -110 -4 -7 6 33 205 41 202 6 -2 47 -45 92 -97z m4961 -643
c72 -403 131 -733 130 -734 -1 -1 -241 123 -533 275 l-531 277 32 37 c206 245
762 884 766 881 2 -2 64 -334 136 -736z m-4708 492 c637 -69 1196 -458 1485
-1035 127 -253 184 -481 194 -772 7 -217 -5 -341 -52 -528 -110 -442 -366
-813 -746 -1087 -111 -79 -356 -204 -485 -246 -410 -134 -881 -124 -1268 25
-613 237 -1057 764 -1186 1409 -28 137 -38 433 -21 584 64 543 377 1047 842
1353 359 236 808 344 1237 297z m3671 -716 c0 -12 -176 -141 -515 -378 -713
-498 -726 -506 -822 -538 -177 -59 -351 -45 -521 41 -82 41 -145 92 -130 106
2 2 33 -14 69 -35 35 -22 101 -52 145 -66 71 -24 95 -27 220 -28 154 0 221 15
335 76 30 16 314 212 630 434 316 222 578 404 583 404 4 1 7 -7 6 -16z m622
-277 c294 -153 540 -283 547 -289 9 -7 12 -85 12 -328 l0 -318 -52 -68 c-29
-37 -285 -366 -570 -731 l-518 -664 0 1323 c0 1223 1 1324 17 1341 9 10 19 17
23 16 4 -2 247 -128 541 -282z m-621 -1688 l-1 -1903 -145 -150 c-81 -82 -179
-187 -220 -231 l-74 -81 0 -1276 0 -1275 220 -408 220 -409 0 -1500 0 -1500
-45 -960 c-44 -948 -44 -962 -73 -1085 -16 -69 -85 -362 -153 -653 l-124 -527
-5 1417 -5 1418 -183 375 c-160 326 -331 685 -415 872 -32 72 -102 142 -175
176 -50 23 -73 27 -184 30 l-128 4 0 369 0 369 60 0 c33 0 77 7 98 15 45 19
285 255 313 307 18 36 19 73 19 1365 0 934 -3 1340 -11 1368 -9 31 -40 70
-143 173 -72 74 -149 143 -171 154 -22 11 -68 23 -102 26 l-63 5 0 2248 0
2249 28 0 c43 0 168 38 230 70 31 15 320 213 642 439 322 226 586 411 588 411
1 0 2 -856 2 -1902z m-1907 1068 c63 -37 166 -73 242 -84 l50 -7 3 -2248 2
-2247 -53 0 c-110 0 -147 -19 -283 -152 -83 -81 -132 -137 -149 -171 l-25 -51
0 -1337 c0 -920 3 -1346 11 -1366 14 -37 264 -290 311 -314 27 -14 58 -19 113
-19 l75 0 0 -369 0 -369 -138 -4 c-132 -3 -141 -5 -205 -36 -99 -49 -128 -89
-241 -333 -55 -118 -195 -410 -310 -649 l-211 -435 -5 -1419 -5 -1418 -108
478 c-60 264 -126 556 -148 650 l-39 171 -45 995 c-45 988 -45 1001 -45 1793
l0 797 220 705 220 706 0 1293 c0 712 3 1294 7 1294 3 0 97 -29 208 -65 112
-36 210 -65 219 -65 14 0 16 15 16 108 0 62 -4 112 -10 118 -6 6 -107 42 -225
80 l-215 69 0 57 c0 32 4 58 9 58 5 0 99 -29 209 -65 110 -36 207 -65 216 -65
14 0 16 15 16 110 0 103 -1 110 -22 123 -13 8 -114 43 -225 78 l-203 63 0 67
0 67 213 -69 c116 -38 218 -69 225 -69 9 0 12 28 12 108 0 59 -4 112 -8 118
-4 7 -104 43 -222 81 l-215 69 -5 365 c-3 200 -9 370 -14 378 -5 8 -78 111
-162 229 l-153 215 102 61 c384 229 675 578 831 998 86 232 121 457 112 723
-3 99 -9 192 -12 208 -4 15 -4 27 -1 27 2 0 30 -15 60 -34z m377 -2341 c0
-2238 0 -2245 -20 -2245 -20 0 -20 7 -20 2245 0 2238 0 2245 20 2245 20 0 20
-7 20 -2245z m2982 1093 c-10 -10 -1315 -518 -1319 -514 -2 2 295 290 659 641
l663 638 3 -378 c1 -209 -1 -382 -6 -387z m413 -334 c58 -70 104 -128 102
-130 -5 -5 -1637 -86 -1650 -81 -5 1 317 77 714 169 398 91 725 166 726 167 1
1 49 -56 108 -125z m-665 -284 l326 0 259 -216 c300 -249 273 -226 255 -220
-8 3 -415 102 -905 221 -489 119 -894 218 -900 221 -5 2 136 2 315 -1 179 -3
471 -5 650 -5z m-585 -424 c303 -220 553 -405 557 -411 4 -5 8 -120 8 -254 l0
-245 -210 -211 -210 -211 0 -197 0 -197 -152 0 c-84 0 -158 -4 -164 -8 -23
-15 -34 -52 -34 -112 0 -52 4 -65 25 -86 16 -16 25 -36 25 -56 0 -20 -9 -39
-25 -54 -22 -20 -25 -31 -25 -94 0 -62 3 -74 24 -95 20 -20 26 -37 28 -82 l3
-58 148 -3 147 -3 0 -84 0 -85 -139 0 -139 0 -241 381 -241 380 0 352 0 352
-85 85 -84 85 104 110 104 110 1 553 c0 440 3 552 13 546 6 -4 260 -188 562
-408z m435 -53 c360 -170 746 -352 858 -403 166 -78 202 -98 202 -115 -1 -11
-20 -155 -44 -320 -42 -298 -43 -299 -60 -272 -17 25 -23 27 -90 27 l-72 0
-317 376 -317 376 -467 340 c-258 187 -475 347 -483 355 -19 18 2 9 790 -364z
m-5729 328 c46 -21 126 -53 178 -71 52 -19 90 -35 85 -37 -5 -1 -171 -41 -369
-88 -198 -47 -367 -88 -375 -91 -19 -7 -26 -12 187 167 103 87 193 158 199
158 6 1 49 -16 95 -38z m1822 -233 l147 -207 0 -370 0 -369 71 -24 72 -24 -72
-64 -72 -63 3 -100 3 -100 55 -19 c30 -10 61 -20 68 -23 8 -3 -13 -28 -58 -67
l-71 -62 3 -95 3 -96 63 -20 c35 -11 64 -23 65 -26 1 -3 -28 -32 -65 -64 l-68
-59 -1 -1070 0 -1071 -501 -365 c-276 -201 -507 -366 -514 -368 -7 -2 -215
135 -463 305 l-451 307 0 331 1 330 178 186 179 186 -5 1319 -4 1319 365 260
c201 143 375 263 388 267 13 4 78 21 146 38 107 26 288 90 339 119 20 11 5 29
196 -241z m-1128 -177 l-347 -248 -395 -469 c-217 -258 -396 -470 -397 -472
-4 -3 -106 727 -106 753 0 17 36 38 203 115 111 52 423 197 692 324 489 229
490 229 575 236 47 4 93 8 104 8 10 1 -138 -110 -329 -247z m-345 -845 l0
-504 -171 -137 c-94 -75 -172 -135 -173 -133 -7 8 -139 363 -139 373 0 11 475
904 481 905 1 0 2 -227 2 -504z m5728 157 c89 -166 162 -304 162 -307 0 -3
-53 -6 -117 -6 l-117 0 -52 -51 -51 -50 -6 242 c-11 395 -10 517 6 494 8 -11
86 -156 175 -322z m-1510 -196 l72 -73 -2 -310 -3 -311 -174 275 c-158 250
-173 277 -161 296 20 33 174 195 185 195 6 1 43 -32 83 -72z m2315 -494 l237
-338 0 -776 0 -777 -501 -478 c-275 -264 -506 -480 -512 -481 -7 -2 -109 24
-227 56 l-215 58 -3 997 -2 996 50 0 50 0 0 -955 c0 -899 1 -955 18 -964 9 -5
81 -26 159 -46 l143 -38 47 44 c27 24 240 227 476 452 l427 409 0 732 -1 731
-217 310 -218 310 -263 3 -264 2 -154 -152 -153 -152 0 -78 0 -78 -50 0 -50 0
0 97 0 98 177 177 178 178 316 0 316 0 236 -337z m-1753 -1472 l0 -418 -419
-126 c-230 -70 -421 -127 -425 -127 -3 0 -6 547 -6 1217 l0 1216 425 -672 425
-672 0 -418z m1579 1433 l171 -245 0 -714 0 -714 -459 -440 -458 -439 -82 20
-81 20 0 904 c0 876 1 904 19 904 10 0 30 9 45 21 24 19 26 26 26 96 0 87 -14
113 -62 113 -25 0 -28 3 -28 35 0 30 3 35 23 35 13 0 33 9 45 20 19 18 22 31
22 97 0 87 -14 113 -62 113 l-28 0 0 67 0 68 142 142 143 143 226 0 226 0 172
-246z m-855 -236 c10 -38 7 -93 -6 -111 -12 -16 -43 -17 -363 -15 l-350 3 -3
59 c-2 32 -1 65 2 72 4 12 70 14 360 14 l354 0 6 -22z m-94 -204 l0 -35 -47 3
c-46 3 -48 4 -51 36 l-3 32 50 0 51 0 0 -36z m84 -80 c18 -18 22 -95 6 -125
-10 -18 -25 -19 -353 -19 -254 0 -346 3 -355 12 -7 7 -12 37 -12 68 0 31 5 61
12 68 9 9 100 12 349 12 294 0 340 -2 353 -16z m-2529 -275 c31 -9 68 -39 163
-133 68 -66 132 -138 143 -158 18 -36 19 -76 19 -1302 0 -867 -3 -1273 -11
-1293 -13 -36 -253 -278 -295 -298 -46 -22 -378 -22 -431 0 -42 18 -261 234
-289 285 -18 34 -19 80 -22 1270 -2 917 0 1249 9 1290 11 52 19 63 138 184 74
75 143 136 166 147 34 16 65 19 205 19 91 0 183 -5 205 -11z m-4204 -390 c50
-16 105 -61 132 -112 21 -40 22 -53 22 -297 0 -140 4 -261 8 -267 6 -10 91
-13 368 -13 l359 0 0 -332 0 -333 447 -305 c385 -262 443 -305 418 -307 -17
-2 -367 -26 -780 -53 -412 -28 -754 -52 -759 -53 -5 -2 -30 -50 -55 -107 l-47
-105 -72 -3 -72 -3 0 201 0 201 -117 -3 -118 -3 -3 -197 -2 -198 -50 0 -50 0
0 200 0 200 -115 0 -115 0 0 -200 0 -200 -138 0 -137 0 -110 110 -110 110
-272 0 -273 0 0 99 0 100 53 10 c94 19 525 101 531 101 3 0 6 52 6 115 l0 114
123 3 122 3 5 695 c5 638 6 698 23 727 21 39 74 83 119 100 45 16 606 17 659
2z m6199 -1340 l0 -642 41 -96 c23 -53 60 -139 83 -191 l42 -95 192 -3 192 -2
-2 -297 -3 -296 -150 -53 c-82 -28 -179 -63 -215 -76 l-65 -23 -3 -113 c-2
-84 1 -114 10 -117 7 -3 101 26 208 65 107 38 201 70 208 70 10 0 12 -17 10
-67 l-3 -66 -135 -48 c-74 -26 -171 -60 -215 -76 l-80 -28 -3 -113 c-2 -86 0
-114 10 -117 8 -3 102 26 210 65 107 38 201 70 207 70 8 0 11 -21 9 -67 l-3
-68 -215 -75 -215 -76 -3 -112 c-2 -88 0 -114 11 -118 7 -2 103 27 212 66 110
38 203 70 207 70 4 0 8 -39 8 -87 0 -131 -48 -302 -290 -1033 l-210 -635 -130
-145 c-71 -80 -234 -283 -362 -452 -128 -169 -233 -306 -234 -305 -1 1 18 423
42 937 l43 935 1 1490 0 1490 221 538 222 537 74 0 73 0 0 -641z m-209 589
c-10 -24 -103 -248 -206 -498 -103 -250 -191 -458 -194 -463 -4 -4 -99 162
-210 369 -111 207 -200 378 -197 381 4 5 799 249 818 252 4 1 -1 -18 -11 -41z
m-3337 -1618 c-114 -366 -210 -669 -214 -673 -4 -4 -134 231 -290 523 -168
315 -279 535 -274 540 5 5 227 168 494 363 l485 354 3 -221 2 -221 -206 -665z
m-890 328 c-22 -24 -132 -144 -244 -268 -112 -124 -215 -238 -230 -253 l-27
-29 -484 244 c-468 235 -483 243 -439 246 294 21 1430 100 1445 101 15 1 11
-7 -21 -41z m370 -528 l286 -536 0 -784 c0 -759 1 -815 39 -1665 22 -484 43
-927 46 -985 l5 -105 -22 30 c-13 16 -170 225 -351 463 l-327 433 -224 632
c-252 711 -296 863 -296 1011 0 53 4 96 9 96 5 0 91 -29 191 -65 100 -36 188
-65 196 -65 12 0 14 20 12 117 l-3 117 -200 71 -200 70 -3 72 -3 71 192 -69
c106 -38 198 -69 206 -69 11 0 13 23 11 117 l-3 117 -75 28 c-41 15 -129 46
-195 69 -66 22 -124 44 -128 48 -4 5 -7 37 -5 73 l3 65 190 -68 c105 -38 196
-67 203 -64 16 6 17 221 1 230 -5 4 -97 38 -202 75 l-192 68 -3 176 -2 177
272 299 c150 165 275 296 279 292 4 -4 136 -248 293 -542z m1906 -770 c0 -363
0 -370 -20 -370 -20 0 -20 7 -20 370 0 363 0 370 20 370 20 0 20 -7 20 -370z
m345 -442 c89 -47 115 -84 233 -338 60 -129 195 -414 301 -632 105 -218 191
-399 191 -402 0 -3 -497 -6 -1104 -6 l-1104 0 180 373 c205 425 398 834 398
846 0 22 68 105 108 133 80 55 98 57 437 55 l310 -2 50 -27z m-645 -1563 l0
-145 -282 0 -283 0 -75 137 c-41 76 -76 141 -78 145 -2 4 159 8 357 8 l361 0
0 -145z m485 135 c-4 -6 -87 -10 -215 -10 -128 0 -211 4 -215 10 -4 7 70 10
215 10 145 0 219 -3 215 -10z m734 -67 c-24 -43 -60 -107 -80 -143 l-37 -65
-281 -3 -281 -2 0 145 0 145 361 0 360 0 -42 -77z m-769 21 c0 -4 -9 -22 -21
-40 l-21 -34 -139 0 -139 0 -20 33 c-11 17 -20 35 -20 40 0 4 81 7 180 7 99 0
180 -3 180 -6z m-78 -171 c-62 -2 -161 -2 -220 0 -59 1 -8 3 113 3 121 0 169
-2 107 -3z m78 -50 c0 -3 -11 -21 -26 -40 l-25 -33 -134 0 -133 0 -21 34 c-12
18 -21 36 -21 40 0 3 81 6 180 6 99 0 180 -3 180 -7z m-450 -163 c0 -6 -127
-10 -360 -10 -233 0 -360 4 -360 10 0 6 127 10 360 10 233 0 360 -4 360 -10z
m485 0 c-4 -6 -87 -10 -215 -10 -128 0 -211 4 -215 10 -4 7 70 10 215 10 145
0 219 -3 215 -10z m770 0 c-4 -6 -135 -10 -361 -10 -229 0 -354 4 -354 10 0 6
127 10 361 10 237 0 358 -3 354 -10z m-1255 -165 l0 -115 -282 0 -283 0 -16
28 c-9 15 -37 67 -63 115 l-48 87 346 0 346 0 0 -115z m431 83 l-20 -33 -140
-3 -139 -3 -21 30 c-12 16 -21 32 -21 35 0 3 81 6 181 6 l181 0 -21 -32z m789
25 c0 -5 -26 -55 -58 -113 l-59 -105 -281 -3 -282 -2 0 115 0 115 340 0 c187
0 340 -3 340 -7z m-740 -163 c-20 -13 -417 -13 -425 0 -4 7 71 10 217 10 148
0 218 -4 208 -10z m-30 -46 c0 -4 -9 -22 -21 -40 l-21 -34 -137 0 -138 0 -27
40 -26 40 185 0 c102 0 185 -3 185 -6z m-450 -164 c0 -6 -127 -10 -360 -10
-233 0 -360 4 -360 10 0 6 127 10 360 10 233 0 360 -4 360 -10z m485 0 c-4 -6
-88 -10 -221 -10 -136 0 -214 4 -214 10 0 6 80 10 221 10 144 0 218 -3 214
-10z m770 0 c-4 -6 -135 -10 -361 -10 -229 0 -354 4 -354 10 0 6 127 10 361
10 237 0 358 -3 354 -10z m-1255 -165 l0 -115 -283 0 -283 0 -17 33 c-9 17
-36 69 -62 115 l-45 82 345 0 345 0 0 -115z m450 109 c0 -3 -9 -19 -21 -35
l-20 -29 -143 0 -142 0 -17 29 c-9 16 -17 32 -17 35 0 3 81 6 180 6 99 0 180
-3 180 -6z m751 -46 c-16 -29 -45 -80 -63 -113 l-34 -60 -282 -3 -282 -2 0
115 0 115 345 0 345 0 -29 -52z m1174 30 c-2 -7 -79 -348 -171 -758 -91 -410
-171 -751 -178 -759 -14 -18 -578 -482 -582 -479 -5 6 256 1093 268 1119 11
23 659 889 665 889 1 0 0 -6 -2 -12z m-3853 -463 c173 -231 317 -424 320 -430
3 -5 61 -251 127 -545 67 -294 124 -541 126 -548 6 -16 -23 9 -325 275 l-225
198 -182 740 c-100 407 -182 744 -183 750 0 16 18 -8 342 -440z m1963 315 c-4
-6 -87 -10 -215 -10 -128 0 -211 4 -215 10 -4 7 70 10 215 10 145 0 219 -3
215 -10z m-54 -82 l-20 -33 -140 -3 -139 -3 -21 30 c-12 16 -21 32 -21 35 0 3
81 6 181 6 l181 0 -21 -32z m-431 -128 c0 -6 -127 -10 -360 -10 -233 0 -360 4
-360 10 0 6 127 10 360 10 233 0 360 -4 360 -10z m490 0 c0 -6 -80 -10 -220
-10 -140 0 -220 4 -220 10 0 6 80 10 220 10 140 0 220 -4 220 -10z m765 0 c-4
-6 -137 -10 -366 -10 -238 0 -358 3 -354 10 4 6 137 10 366 10 238 0 358 -3
354 -10z m-1255 -165 l0 -115 -282 0 -283 0 -20 38 c-12 20 -40 72 -64 115
l-42 77 345 0 346 0 0 -115z m450 109 c0 -4 -9 -22 -21 -40 l-21 -34 -137 0
-138 0 -27 40 -26 40 185 0 c102 0 185 -3 185 -6z m751 -46 c-16 -29 -45 -80
-63 -113 l-34 -60 -280 -3 -281 -2 -6 82 c-4 46 -7 98 -7 116 l0 32 350 0 350
0 -29 -52z m-716 -118 c-4 -6 -88 -10 -221 -10 -136 0 -214 4 -214 10 0 6 80
10 221 10 144 0 218 -3 214 -10z m-35 -56 c0 -3 -9 -19 -21 -35 l-20 -29 -143
0 -142 0 -17 29 c-9 16 -17 32 -17 35 0 3 81 6 180 6 99 0 180 -3 180 -6z
m-627 -161 c-101 -2 -265 -2 -365 0 -101 1 -19 2 182 2 201 0 283 -1 183 -2z
m560 0 c-62 -2 -164 -2 -225 0 -62 1 -12 3 112 3 124 0 174 -2 113 -3z m695 0
c-97 -2 -259 -2 -360 0 -101 1 -21 2 177 2 198 0 280 -1 183 -2z m-1078 -158
l0 -115 -282 0 -283 0 -20 38 c-12 20 -40 72 -64 115 l-42 77 345 0 346 0 0
-115z m434 75 l-27 -40 -138 0 -138 0 -19 28 c-10 15 -22 33 -26 40 -6 9 34
12 184 12 l190 0 -26 -40z m767 -12 c-16 -29 -45 -80 -63 -113 l-34 -60 -282
-3 -282 -2 0 115 0 115 345 0 345 0 -29 -52z m-711 -118 c0 -6 -80 -10 -220
-10 -140 0 -220 4 -220 10 0 6 80 10 220 10 140 0 220 -4 220 -10z m-40 -54
c0 -3 -9 -21 -21 -40 l-21 -36 -138 0 -137 0 -27 40 -26 40 185 0 c102 0 185
-2 185 -4z m-627 -163 c-101 -2 -265 -2 -365 0 -101 1 -19 2 182 2 201 0 283
-1 183 -2z m560 0 c-62 -2 -164 -2 -225 0 -62 1 -12 3 112 3 124 0 174 -2 113
-3z m695 0 c-97 -2 -259 -2 -360 0 -101 1 -21 2 177 2 198 0 280 -1 183 -2z
m-1078 -158 l0 -115 -282 0 -283 0 -16 28 c-9 15 -37 67 -63 115 l-48 87 346
0 346 0 0 -115z m454 103 c-4 -7 -16 -25 -26 -40 l-19 -28 -142 0 -142 0 -23
40 -23 40 191 0 c150 0 190 -3 184 -12z m758 -20 c-11 -18 -41 -72 -66 -120
l-48 -88 -279 0 -279 0 0 120 0 120 346 0 346 0 -20 -32z m-724 -140 c-4 -10
-56 -13 -218 -13 -162 0 -214 3 -217 13 -4 9 44 12 217 12 173 0 221 -3 218
-12z m-38 -54 c0 -4 -9 -22 -21 -40 l-21 -34 -138 0 -139 0 -19 28 c-10 15
-22 33 -26 40 -6 9 33 12 178 12 102 0 186 -3 186 -6z m-627 -161 c-101 -2
-265 -2 -365 0 -101 1 -19 2 182 2 201 0 283 -1 183 -2z m560 0 c-62 -2 -164
-2 -225 0 -62 1 -12 3 112 3 124 0 174 -2 113 -3z m700 0 c-101 -2 -265 -2
-365 0 -101 1 -19 2 182 2 201 0 283 -1 183 -2z m-1083 -163 l0 -120 -279 0
-280 0 -49 88 c-27 48 -57 102 -66 120 l-17 32 346 0 345 0 0 -120z m436 78
l-26 -43 -138 -3 -139 -3 -26 41 c-15 22 -27 42 -27 45 0 3 86 5 191 5 l190 0
-25 -42z m771 0 c-13 -24 -43 -78 -67 -120 l-42 -78 -279 0 -279 0 0 120 0
120 346 0 346 0 -25 -42z m-722 -138 c-4 -6 -87 -10 -215 -10 -128 0 -211 4
-215 10 -4 7 70 10 215 10 145 0 219 -3 215 -10z m-50 -80 l-16 -30 -148 0
c-147 0 -149 0 -165 25 -9 13 -16 27 -16 30 0 3 81 5 180 5 l181 0 -16 -30z
m-215 -125 c0 -2 -27 -49 -61 -105 l-60 -100 -402 0 -402 0 -41 68 c-23 37
-52 84 -64 105 l-22 37 526 0 c289 0 526 -2 526 -5z m1087 -97 l-62 -103 -409
0 -409 0 -63 103 -63 102 535 0 534 0 -63 -102z m-1237 -158 c0 -6 -130 -10
-369 -10 -236 0 -372 4 -376 10 -4 7 122 10 369 10 244 0 376 -4 376 -10z
m1140 0 c0 -6 -132 -10 -375 -10 -243 0 -375 4 -375 10 0 6 132 10 375 10 243
0 375 -4 375 -10z"/>
<path d="M8168 16706 c-22 -17 -40 -64 -33 -87 4 -10 18 -28 32 -39 22 -17 40
-20 125 -20 97 0 100 1 129 29 16 16 29 37 29 46 0 24 -27 72 -45 79 -32 12
-219 6 -237 -8z m183 -46 c-18 -16 -38 -20 -95 -20 -78 0 -92 5 -75 27 8 9 38
13 103 13 l91 -1 -24 -19z"/>
<path d="M8066 16509 c-20 -16 -26 -29 -26 -59 0 -30 6 -43 26 -59 23 -18 41
-21 121 -21 94 0 127 9 150 39 20 26 15 70 -12 96 -22 23 -31 25 -128 25 -90
0 -108 -3 -131 -21z m204 -29 c0 -19 -41 -30 -114 -30 -57 0 -76 3 -76 13 0 8
3 17 7 20 10 11 183 8 183 -3z"/>
<path d="M7997 16320 c-44 -35 -43 -93 2 -127 10 -8 54 -12 119 -13 101 0 104
1 133 29 16 16 29 39 29 51 0 12 -13 35 -29 51 -29 28 -32 29 -129 29 -84 0
-103 -3 -125 -20z m203 -24 c0 -3 -7 -12 -16 -20 -12 -12 -36 -16 -100 -16
-82 0 -84 1 -74 20 9 18 21 20 100 20 50 0 90 -2 90 -4z"/>
<path d="M11675 16695 c-34 -33 -32 -70 5 -107 l30 -30 104 4 c123 4 146 16
146 79 0 29 -6 42 -26 58 -23 18 -41 21 -131 21 -97 0 -106 -2 -128 -25z m243
-37 c3 -16 -5 -18 -65 -18 -80 0 -110 7 -117 26 -5 12 10 14 87 12 78 -3 92
-6 95 -20z"/>
<path d="M11775 16505 c-16 -15 -25 -36 -25 -55 0 -19 9 -40 25 -55 23 -23 31
-25 130 -25 99 0 107 2 130 25 16 15 25 36 25 55 0 19 -9 40 -25 55 -23 23
-31 25 -130 25 -99 0 -107 -2 -130 -25z m233 -27 c23 -23 12 -28 -64 -28 -73
0 -114 11 -114 30 0 15 163 13 178 -2z"/>
<path d="M11864 16328 c-47 -22 -56 -86 -19 -123 22 -23 31 -25 128 -25 90 0
108 3 131 21 20 16 26 29 26 59 0 30 -6 43 -26 59 -23 18 -40 21 -123 20 -53
0 -106 -5 -117 -11z m210 -34 c9 -3 16 -12 16 -20 0 -11 -18 -14 -76 -14 -73
0 -114 11 -114 30 0 11 148 14 174 4z"/>
<path d="M9026 17248 c-3 -7 -7 -25 -10 -40 l-6 -28 175 0 175 0 0 40 0 40
-165 0 c-124 0 -167 -3 -169 -12z"/>
<path d="M10739 17255 c-3 -2 -3 -20 -1 -40 l4 -35 169 0 169 0 0 24 c0 56 1
56 -174 56 -90 0 -165 -2 -167 -5z"/>
<path d="M9007 17133 c-3 -5 -8 -23 -12 -40 l-7 -33 186 0 186 0 0 40 0 40
-174 0 c-96 0 -177 -3 -179 -7z"/>
<path d="M10738 17105 c-2 -20 -2 -38 1 -40 2 -3 87 -5 188 -5 l183 0 -6 28
c-3 15 -7 33 -10 40 -2 9 -47 12 -178 12 l-174 0 -4 -35z"/>
<path d="M8977 17003 c-4 -3 -7 -21 -7 -40 l0 -33 195 0 195 0 0 40 0 40 -188
0 c-104 0 -192 -3 -195 -7z"/>
<path d="M10739 17005 c-1 -3 -1 -16 -1 -30 0 -14 0 -29 1 -35 1 -6 73 -10
196 -10 213 0 205 -2 189 58 -6 22 -8 22 -195 22 -104 0 -189 -2 -190 -5z"/>
<path d="M8957 16883 c-3 -5 -8 -23 -12 -40 l-7 -33 211 0 211 0 0 40 0 40
-199 0 c-110 0 -202 -3 -204 -7z"/>
<path d="M10738 16855 c-2 -20 -2 -38 1 -40 2 -3 98 -5 213 -5 l208 0 -6 28
c-3 15 -7 33 -10 40 -2 9 -52 12 -203 12 l-199 0 -4 -35z"/>
<path d="M8926 16738 c-16 -61 -26 -58 214 -58 l220 0 0 40 0 40 -214 0 c-213
0 -214 0 -220 -22z"/>
<path d="M10739 16755 c-1 -3 -1 -16 -1 -30 0 -14 0 -29 1 -35 1 -6 82 -10
222 -10 l222 0 -7 31 c-3 17 -6 35 -6 40 0 9 -429 13 -431 4z"/>
<path d="M8906 16628 c-3 -7 -7 -25 -10 -40 l-6 -28 235 0 235 0 0 40 0 40
-225 0 c-172 0 -227 -3 -229 -12z"/>
<path d="M10738 16605 c-2 -20 -2 -38 1 -40 2 -3 109 -5 237 -5 182 0 233 3
230 13 -3 6 -7 24 -10 40 l-6 27 -224 0 -224 0 -4 -35z"/>
<path d="M8876 16479 c-3 -17 -6 -35 -6 -40 0 -5 110 -9 245 -9 l245 0 0 40 0
40 -239 0 -238 0 -7 -31z"/>
<path d="M10739 16505 c-1 -3 -1 -16 -1 -30 0 -14 0 -29 1 -35 1 -6 90 -10
247 -10 l246 0 -6 23 c-3 12 -6 30 -6 40 0 16 -18 17 -240 17 -132 0 -240 -2
-241 -5z"/>
<path d="M8856 16378 c-3 -7 -7 -25 -10 -40 l-6 -28 260 0 260 0 0 40 0 40
-250 0 c-192 0 -252 -3 -254 -12z"/>
<path d="M10738 16355 c-2 -20 -2 -38 1 -40 2 -3 118 -5 258 -5 l253 0 0 24
c0 58 9 56 -260 56 l-248 0 -4 -35z"/>
<path d="M8826 16229 c-3 -17 -6 -35 -6 -40 0 -5 122 -9 270 -9 l270 0 0 40 0
40 -264 0 -263 0 -7 -31z"/>
<path d="M10739 16255 c-1 -3 -1 -16 -1 -30 0 -14 0 -29 1 -35 1 -12 527 -14
534 -2 3 4 2 22 0 40 l-5 32 -264 0 c-145 0 -264 -2 -265 -5z"/>
<path d="M8806 16124 c-3 -9 -6 -27 -6 -40 l0 -24 280 0 280 0 0 40 0 40 -274
0 c-240 0 -275 -2 -280 -16z"/>
<path d="M10740 16100 l0 -40 281 0 282 0 -7 31 c-3 17 -6 35 -6 40 0 5 -124
9 -275 9 l-275 0 0 -40z"/>
<path d="M9578 15260 c-56 -30 -82 -73 -86 -145 -6 -84 14 -119 129 -230 68
-65 106 -94 135 -103 28 -8 125 -12 300 -12 251 0 260 1 309 24 59 28 208 176
230 229 36 86 5 189 -69 232 l-43 25 -434 0 c-410 -1 -436 -2 -471 -20z m885
-21 c21 -5 52 -23 69 -38 26 -23 32 -37 36 -84 4 -47 0 -63 -21 -99 -33 -56
-156 -174 -201 -193 -28 -12 -88 -15 -298 -15 -314 0 -306 -2 -424 122 -90 94
-112 143 -94 209 12 44 58 89 102 99 52 12 787 12 831 -1z"/>
<path d="M9634 15176 c-40 -18 -59 -62 -44 -102 13 -34 142 -169 182 -190 39
-20 516 -21 556 0 15 8 62 50 105 94 68 70 77 84 77 117 0 51 -14 73 -58 85
-59 16 -779 13 -818 -4z m806 -126 c0 -16 -91 -110 -122 -126 -21 -11 -81 -14
-278 -14 l-252 0 -69 66 c-38 37 -66 71 -63 75 8 13 784 11 784 -1z"/>
<path d="M7575 15934 c-819 -85 -1464 -662 -1631 -1458 -32 -154 -43 -414 -24
-574 86 -733 604 -1341 1315 -1547 178 -51 252 -60 505 -60 216 1 245 3 361
28 856 183 1457 919 1459 1787 1 887 -636 1647 -1510 1801 -111 20 -381 33
-475 23z m490 -64 c729 -144 1280 -693 1427 -1422 19 -97 23 -144 23 -333 0
-237 -10 -316 -60 -490 -96 -332 -284 -631 -535 -852 -481 -422 -1146 -558
-1750 -357 -611 203 -1063 717 -1192 1356 -20 99 -23 142 -23 348 1 206 4 248
23 340 54 246 164 499 300 690 290 406 746 677 1248 740 122 15 416 4 539 -20z"/>
<path d="M7580 15689 c-668 -64 -1236 -563 -1389 -1221 -81 -345 -35 -742 122
-1054 224 -444 619 -749 1111 -856 86 -19 132 -22 311 -22 179 0 225 3 311 22
585 127 1049 554 1210 1112 214 746 -140 1536 -841 1871 -264 126 -544 176
-835 148z m318 -39 c351 -38 675 -193 927 -445 224 -225 373 -507 431 -820 28
-147 26 -432 -4 -571 -64 -297 -197 -553 -397 -763 -229 -240 -491 -385 -825
-457 -122 -27 -468 -27 -590 0 -308 66 -558 197 -771 404 -266 256 -422 565
-470 927 -16 124 -6 373 20 497 168 784 889 1312 1679 1228z"/>
<path d="M7586 15590 c-356 -41 -647 -180 -896 -430 -203 -202 -328 -421 -395
-689 -98 -396 -29 -821 191 -1158 221 -341 552 -569 949 -655 132 -28 370 -35
511 -14 628 92 1120 562 1246 1188 19 93 23 144 22 288 -1 189 -17 294 -69
456 -167 512 -625 907 -1157 998 -113 20 -302 27 -402 16z m166 -57 l3 -48 91
-7 c49 -4 124 -14 165 -23 145 -31 134 -32 147 14 9 30 17 39 28 34 10 -4 14
-13 10 -27 -19 -67 -23 -61 63 -96 44 -17 122 -56 172 -86 90 -53 109 -61 109
-46 1 19 41 54 56 48 14 -5 13 -11 -10 -40 l-26 -35 141 -140 141 -141 28 20
c55 39 72 13 19 -30 l-30 -26 39 -64 c48 -80 93 -169 117 -233 18 -47 20 -49
49 -42 51 11 61 11 61 -4 0 -8 -14 -19 -32 -25 -17 -6 -34 -14 -38 -17 -3 -4
1 -33 9 -65 15 -59 30 -160 41 -266 l6 -58 45 0 c32 0 44 -4 44 -15 0 -11 -12
-15 -45 -15 -25 0 -45 -5 -45 -10 0 -45 -25 -221 -41 -288 -10 -46 -19 -88
-19 -92 0 -5 18 -15 40 -21 67 -20 38 -43 -30 -25 -23 6 -27 2 -54 -66 -16
-40 -55 -120 -88 -176 -64 -113 -64 -109 -5 -143 14 -8 16 -13 7 -24 -10 -12
-18 -10 -48 10 l-37 25 -34 -42 c-45 -56 -144 -154 -201 -200 l-45 -37 23 -31
c15 -19 21 -38 17 -48 -5 -14 -12 -11 -38 20 l-32 37 -65 -41 c-68 -44 -245
-128 -269 -128 -13 0 -12 -17 5 -79 11 -39 -27 -22 -41 19 -14 40 -9 39 -135
12 -52 -11 -134 -24 -182 -28 l-88 -7 0 -43 c0 -32 -4 -44 -15 -44 -11 0 -15
12 -15 44 l0 43 -87 7 c-76 6 -222 32 -289 51 -17 5 -22 0 -33 -34 -7 -26 -18
-41 -28 -41 -11 0 -14 6 -9 23 20 69 19 74 -11 81 -42 11 -200 88 -263 130
l-55 36 -30 -35 c-21 -24 -34 -32 -44 -26 -11 7 -8 16 14 45 l28 37 -39 31
c-50 41 -171 162 -211 212 l-31 38 -35 -26 c-29 -23 -36 -24 -46 -12 -10 12
-9 17 6 25 59 34 59 31 -1 133 -31 51 -71 130 -89 176 -28 72 -35 82 -52 77
-61 -17 -75 -17 -75 -2 0 10 15 21 40 28 22 7 40 13 40 15 0 1 -9 40 -19 86
-17 71 -41 243 -41 293 0 11 -11 15 -45 15 -33 0 -45 4 -45 15 0 11 12 15 44
15 l44 0 7 78 c4 42 16 122 27 177 29 138 29 136 -12 150 -19 6 -35 18 -35 26
0 15 10 15 61 4 29 -7 31 -5 49 42 25 66 81 177 122 242 l35 54 -39 33 c-31
27 -35 34 -21 39 10 4 28 -2 46 -15 l28 -21 141 140 141 140 -25 36 c-20 30
-22 36 -8 41 14 6 54 -30 55 -48 0 -15 17 -8 101 42 46 28 124 67 172 87 84
35 88 38 81 62 -19 70 7 100 27 32 7 -23 18 -41 25 -41 7 0 51 9 99 21 48 11
130 23 184 27 l96 7 3 48 c2 32 8 47 17 47 9 0 15 -15 17 -47z"/>
<path d="M7555 15439 c-73 -10 -197 -39 -207 -48 -6 -5 8 -67 26 -117 3 -8 28
-6 84 7 44 11 120 23 169 27 l88 7 3 68 3 67 -53 -1 c-29 -1 -80 -5 -113 -10z"/>
<path d="M7752 15383 l3 -68 88 -7 c49 -4 124 -16 168 -26 l78 -19 21 60 c11
34 17 64 13 68 -21 18 -248 58 -336 59 l-38 0 3 -67z"/>
<path d="M7240 15356 c-81 -34 -158 -73 -221 -114 l-57 -36 37 -53 c20 -29 39
-52 43 -53 4 0 34 17 65 37 32 20 95 53 141 74 45 20 86 39 89 43 7 7 -27 126
-36 126 -3 -1 -31 -11 -61 -24z"/>
<path d="M8143 15316 l-21 -65 78 -31 c44 -18 111 -52 151 -76 79 -49 79 -49
125 17 l28 41 -29 24 c-30 25 -252 138 -290 148 -18 5 -24 -2 -42 -58z"/>
<path d="M7550 15265 c-122 -21 -163 -34 -156 -52 3 -8 9 -26 12 -39 3 -13 8
-24 9 -24 2 0 34 7 72 16 37 9 104 19 148 22 l80 7 3 43 3 42 -48 -1 c-26 -1
-82 -7 -123 -14z"/>
<path d="M7752 15238 l3 -43 80 -7 c44 -3 111 -14 149 -22 38 -9 70 -15 71
-14 1 2 6 20 12 40 l11 38 -36 10 c-49 14 -218 40 -260 40 -33 0 -33 0 -30
-42z"/>
<path d="M7277 15186 c-43 -19 -110 -53 -148 -76 l-69 -41 26 -35 27 -34 31
21 c39 26 210 109 225 109 14 0 13 15 -2 57 l-12 32 -78 -33z"/>
<path d="M8099 15180 c-7 -22 -10 -41 -8 -43 2 -2 33 -15 69 -30 36 -15 94
-45 130 -67 l65 -39 22 27 c13 15 23 32 23 37 0 16 -143 97 -239 135 l-50 19
-12 -39z"/>
<path d="M6860 15122 c-56 -49 -115 -110 -183 -188 -17 -21 -17 -22 36 -58
l53 -37 122 121 121 121 -35 49 c-20 28 -39 50 -43 50 -4 0 -36 -26 -71 -58z"/>
<path d="M8496 15131 l-36 -49 121 -121 121 -122 49 33 c27 18 49 39 49 47 0
16 -242 261 -258 261 -6 0 -26 -22 -46 -49z"/>
<path d="M7619 15090 c-145 -18 -306 -77 -426 -157 -78 -51 -206 -174 -259
-249 -62 -86 -129 -234 -156 -340 -31 -124 -31 -352 0 -466 50 -182 134 -331
262 -459 124 -126 276 -213 450 -260 73 -20 108 -23 250 -23 149 0 173 3 255
27 353 106 612 374 695 720 125 522 -194 1050 -714 1182 -104 26 -260 37 -357
25z m341 -60 c114 -27 286 -114 378 -191 330 -274 433 -739 251 -1127 -50
-109 -109 -190 -200 -278 -84 -80 -136 -117 -229 -164 -155 -78 -288 -105
-472 -97 -185 8 -319 51 -470 149 -193 127 -338 326 -400 553 -32 118 -32 355
0 473 47 174 130 314 261 442 154 150 318 228 556 264 61 9 242 -4 325 -24z"/>
<path d="M7635 14336 c-59 -27 -118 -88 -135 -141 -20 -61 -9 -155 26 -211 73
-119 215 -153 336 -80 168 101 153 349 -26 432 -67 31 -135 31 -201 0z m196
-39 c66 -35 102 -93 107 -171 5 -76 -12 -120 -68 -170 -118 -107 -304 -44
-339 114 -15 69 9 149 61 197 60 56 164 69 239 30z"/>
<path d="M7666 14296 c-185 -69 -156 -352 38 -373 68 -8 113 5 156 43 98 89
89 238 -20 310 -46 31 -121 39 -174 20z m151 -22 c70 -34 113 -129 93 -205
-33 -120 -175 -174 -278 -106 -34 23 -82 106 -82 141 0 69 44 141 102 169 43
21 121 21 165 1z"/>
<path d="M7693 14205 c-35 -15 -63 -60 -63 -101 0 -16 12 -38 34 -60 43 -43
90 -46 135 -8 59 50 46 140 -24 170 -41 17 -42 17 -82 -1z m81 -46 c31 -25 34
-61 6 -89 -42 -42 -110 -13 -110 46 0 23 42 64 65 64 7 0 24 -9 39 -21z"/>
<path d="M6906 14929 l-110 -112 29 -23 c17 -13 33 -24 36 -24 3 0 54 48 112
106 l107 107 -21 28 c-11 16 -25 29 -32 29 -6 0 -60 -50 -121 -111z"/>
<path d="M8418 15023 c-8 -10 -18 -23 -21 -29 -6 -11 196 -224 212 -224 3 1
19 11 35 25 l29 23 -110 111 c-60 61 -114 111 -120 111 -5 0 -17 -8 -25 -17z"/>
<path d="M6583 14793 c-46 -80 -113 -224 -113 -243 0 -5 24 -16 53 -26 28 -9
57 -19 63 -21 7 -2 18 13 24 34 14 42 76 166 114 229 l25 40 -49 37 c-27 20
-53 37 -58 37 -4 0 -31 -39 -59 -87z"/>
<path d="M8775 14849 c-22 -17 -44 -34 -48 -38 -4 -4 13 -41 37 -81 25 -40 60
-107 77 -149 17 -42 32 -77 33 -78 2 -2 30 7 65 18 72 25 72 15 1 166 -48 101
-105 194 -118 192 -4 0 -25 -14 -47 -30z"/>
<path d="M6761 14758 c-66 -104 -136 -257 -124 -268 4 -4 22 -12 39 -18 l32
-10 27 63 c14 34 45 96 69 137 l42 75 -31 22 c-38 26 -37 26 -54 -1z"/>
<path d="M8652 14759 l-33 -21 21 -32 c30 -44 110 -207 110 -223 0 -15 28 -17
64 -3 25 9 25 10 12 48 -24 67 -123 252 -136 252 -3 0 -20 -10 -38 -21z"/>
<path d="M6455 14500 c-15 -24 -46 -188 -52 -272 l-6 -98 66 0 65 0 7 68 c3
37 15 110 26 162 10 53 19 98 19 102 0 10 -119 47 -125 38z"/>
<path d="M8951 14489 c-30 -10 -56 -21 -58 -23 -3 -2 5 -49 16 -105 12 -55 21
-115 21 -134 0 -19 3 -49 6 -66 6 -31 7 -31 72 -31 l65 0 -6 93 c-7 92 -41
265 -55 278 -4 4 -31 -2 -61 -12z"/>
<path d="M8810 14445 c-39 -14 -39 -11 -16 -117 9 -42 16 -90 16 -106 0 -16 3
-44 6 -61 6 -28 10 -31 45 -31 l39 0 0 43 c0 55 -29 224 -44 258 -10 25 -13
26 -46 14z"/>
<path d="M6596 14373 c-9 -43 -20 -115 -23 -160 l-6 -83 42 0 c26 0 41 4 41
13 0 35 23 188 35 235 13 53 13 53 -11 63 -53 20 -60 14 -78 -68z"/>
<path d="M6403 14003 c6 -88 39 -269 52 -281 5 -5 125 28 125 35 0 2 -9 50
-20 106 -10 56 -22 132 -25 170 l-7 67 -65 0 -66 0 6 -97z"/>
<path d="M6570 14045 c0 -59 35 -254 48 -267 4 -4 24 -2 45 4 27 8 36 16 32
27 -14 48 -34 155 -40 219 l-7 72 -39 0 -39 0 0 -55z"/>
<path d="M8816 14043 c-7 -65 -33 -214 -41 -235 -4 -10 6 -18 32 -26 21 -6 41
-8 44 -4 13 13 40 157 46 239 l6 83 -41 0 -41 0 -5 -57z"/>
<path d="M8936 14053 c-5 -43 -31 -207 -43 -273 -4 -24 0 -27 50 -43 29 -9 58
-17 64 -17 18 0 63 232 63 328 l0 52 -64 0 -65 0 -5 -47z"/>
<path d="M6662 13747 c-27 -8 -31 -14 -26 -31 13 -44 72 -164 108 -219 l36
-58 30 23 c17 12 30 25 30 30 0 4 -14 31 -31 59 -18 28 -47 85 -65 127 -18 42
-37 77 -41 78 -4 1 -23 -3 -41 -9z"/>
<path d="M8751 13739 c-25 -67 -63 -142 -95 -192 l-35 -56 32 -26 32 -25 23
27 c22 28 114 209 126 249 5 17 1 23 -18 28 -13 3 -31 9 -40 12 -11 4 -19 -2
-25 -17z"/>
<path d="M6522 13701 c-49 -15 -52 -18 -47 -41 10 -40 88 -200 129 -263 l37
-58 52 37 c29 21 53 39 55 40 1 1 -19 38 -46 83 -27 44 -61 112 -77 151 -15
38 -33 69 -39 69 -6 -1 -35 -9 -64 -18z"/>
<path d="M8836 13634 c-22 -47 -57 -115 -79 -151 -21 -36 -35 -68 -30 -72 5
-3 30 -21 55 -38 l47 -33 47 75 c55 90 129 255 117 265 -8 7 -101 40 -113 40
-3 0 -23 -38 -44 -86z"/>
<path d="M6831 13434 l-32 -22 50 -60 c46 -55 143 -146 175 -164 8 -4 21 4 34
22 l22 29 -108 109 -109 108 -32 -22z"/>
<path d="M8590 13449 c0 -6 -45 -55 -101 -110 l-100 -99 21 -30 c19 -26 24
-28 43 -19 32 18 207 198 207 214 0 7 -13 23 -29 34 -33 24 -41 26 -41 10z"/>
<path d="M6718 13353 c-27 -19 -48 -39 -48 -43 0 -22 126 -156 223 -239 l39
-32 39 52 c21 29 39 55 38 58 0 3 -29 30 -65 59 -36 30 -88 82 -116 115 -28
34 -54 63 -57 64 -3 1 -27 -14 -53 -34z"/>
<path d="M8650 13333 c-25 -31 -76 -83 -115 -116 -38 -33 -72 -61 -74 -63 -2
-2 13 -29 34 -59 42 -62 30 -64 129 20 58 49 176 178 176 193 0 7 -94 82 -102
82 -2 0 -23 -25 -48 -57z"/>
<path d="M7088 13195 c-10 -13 -18 -28 -18 -33 0 -20 243 -152 278 -152 10 0
38 68 30 74 -1 2 -38 20 -82 40 -43 20 -101 49 -128 66 -26 16 -52 30 -56 30
-4 0 -15 -11 -24 -25z"/>
<path d="M8306 13194 c-21 -15 -77 -45 -125 -67 -47 -22 -88 -41 -89 -43 -2
-1 1 -19 8 -39 10 -30 15 -35 33 -30 32 9 218 102 246 124 24 18 24 18 5 50
-22 38 -29 38 -78 5z"/>
<path d="M7005 13080 c-19 -26 -35 -52 -35 -58 0 -21 243 -151 310 -167 24 -6
27 -2 43 48 9 29 17 58 17 64 0 5 -31 22 -70 37 -38 15 -105 49 -150 76 l-80
48 -35 -48z"/>
<path d="M8345 13079 c-44 -27 -110 -61 -147 -76 -75 -29 -77 -33 -52 -107 15
-44 18 -47 43 -41 72 18 311 147 311 167 0 8 -46 74 -69 99 -3 4 -42 -16 -86
-42z"/>
<path d="M8001 13064 c-25 -8 -91 -19 -148 -26 l-103 -12 0 -38 0 -38 59 0
c59 0 202 23 246 40 22 8 23 12 13 42 -15 46 -17 47 -67 32z"/>
<path d="M7402 13033 c-6 -20 -10 -38 -9 -39 10 -10 217 -44 266 -44 l61 0 0
39 0 38 -77 7 c-43 4 -106 14 -141 22 -86 19 -87 19 -100 -23z"/>
<path d="M7375 12949 c-19 -55 -35 -103 -35 -109 0 -21 358 -79 375 -61 3 2 5
32 5 66 l0 62 -77 7 c-71 6 -161 22 -235 41 -19 5 -29 3 -33 -6z"/>
<path d="M8015 12944 c-27 -7 -98 -19 -157 -26 l-108 -12 0 -61 c0 -34 2 -64
5 -66 9 -10 200 12 286 32 99 23 95 17 64 109 -14 41 -23 43 -90 24z"/>
<path d="M10560 13575 c-68 -32 -124 -85 -156 -147 -24 -47 -25 -48 -73 -48
-65 0 -81 -19 -81 -96 0 -32 4 -64 8 -70 12 -19 49 -34 81 -34 25 0 32 -5 37
-27 12 -50 52 -117 91 -154 118 -113 308 -119 431 -14 40 35 102 141 102 177
0 14 8 18 40 18 62 0 90 33 90 105 0 72 -21 95 -87 95 -47 1 -48 1 -72 51 -28
57 -80 108 -143 140 -32 17 -65 24 -128 26 -75 4 -91 1 -140 -22z m245 -39
c58 -27 145 -116 145 -148 0 -24 -40 -2 -67 35 -62 89 -197 123 -298 76 -41
-19 -115 -91 -115 -111 0 -4 -9 -8 -20 -8 -27 0 -25 14 10 65 51 74 129 113
230 114 49 1 78 -5 115 -23z m-45 -146 c10 -7 -13 -10 -75 -9 -59 0 -83 3 -70
9 28 12 127 12 145 0z m325 -110 l0 -55 -390 -3 c-430 -3 -415 -5 -415 59 0
63 -26 59 409 57 l396 -3 0 -55z m-568 -158 c48 -48 68 -61 111 -72 61 -14
117 -8 171 20 38 19 101 82 101 100 0 6 12 10 26 10 l26 0 -25 -42 c-104 -179
-360 -178 -480 2 -43 63 -1 52 70 -18z m327 33 c-20 -30 -108 -75 -148 -75
-17 0 -47 4 -66 10 -36 10 -110 64 -110 81 0 5 72 9 170 9 l170 0 -16 -25z"/>
<path d="M10356 13314 c-33 -32 -13 -74 36 -74 38 0 55 33 33 66 -18 28 -46
31 -69 8z m44 -28 c0 -3 -4 -8 -10 -11 -5 -3 -10 -1 -10 4 0 6 5 11 10 11 6 0
10 -2 10 -4z"/>
<path d="M10957 13312 c-32 -35 -14 -72 35 -72 38 0 55 33 33 66 -18 29 -46
31 -68 6z m43 -26 c0 -3 -4 -8 -10 -11 -5 -3 -10 -1 -10 4 0 6 5 11 10 11 6 0
10 -2 10 -4z"/>
<path d="M10617 12840 c-93 -24 -176 -90 -216 -173 -22 -45 -25 -47 -65 -47
-23 0 -52 -7 -64 -16 -19 -13 -22 -24 -22 -80 0 -79 19 -104 79 -104 38 0 39
-1 60 -59 28 -76 87 -143 159 -178 49 -24 69 -28 142 -28 73 0 92 4 137 28 29
15 69 43 89 63 37 37 84 125 84 157 0 13 9 17 40 17 62 0 90 33 90 105 0 72
-21 95 -88 95 -46 0 -48 1 -61 37 -21 56 -116 146 -176 166 -64 22 -140 29
-188 17z m141 -43 c68 -18 129 -61 164 -116 33 -52 34 -61 10 -61 -9 0 -33 21
-52 47 -69 92 -198 125 -296 75 -40 -20 -114 -93 -114 -112 0 -6 -9 -10 -20
-10 -28 0 -25 20 10 68 37 51 96 91 158 108 61 17 78 17 140 1z m10 -167 c12
-7 -10 -9 -75 -10 -51 0 -93 2 -93 5 0 2 15 9 33 14 36 11 109 6 135 -9z m317
-110 l0 -55 -390 -3 c-430 -3 -415 -5 -415 59 0 63 -26 59 409 57 l396 -3 0
-55z m-581 -146 c99 -118 284 -116 371 3 20 27 38 42 53 42 20 1 21 -1 12 -20
-24 -44 -87 -103 -135 -125 -37 -18 -68 -24 -121 -24 -108 0 -192 49 -240 141
-13 27 -13 29 4 29 10 0 35 -21 56 -46z m319 7 c-48 -43 -112 -64 -165 -55
-43 8 -115 49 -128 74 -10 20 -7 20 162 20 l173 -1 -42 -38z"/>
<path d="M10349 12549 c-16 -31 3 -69 35 -69 44 0 66 59 32 82 -21 15 -55 8
-67 -13z"/>
<path d="M10949 12549 c-16 -31 3 -69 35 -69 27 0 56 23 56 45 0 42 -71 61
-91 24z"/>
<path d="M10595 12077 c-89 -30 -161 -93 -197 -174 -18 -42 -20 -43 -67 -43
-65 0 -81 -19 -81 -97 0 -71 15 -90 80 -101 39 -7 44 -10 55 -48 38 -130 161
-218 305 -218 90 1 148 23 214 84 44 41 96 127 96 161 0 12 12 18 47 22 62 7
83 32 83 101 0 74 -18 96 -80 96 -49 0 -50 0 -75 50 -53 105 -154 170 -274
176 -38 2 -83 -2 -106 -9z m215 -57 c57 -28 97 -65 121 -112 24 -46 24 -48 -1
-48 -11 0 -26 12 -34 28 -34 65 -128 121 -202 122 -82 0 -164 -43 -209 -112
-24 -35 -55 -51 -55 -28 0 46 99 142 169 165 62 20 155 14 211 -15z m-55 -145
c28 -13 24 -13 -62 -14 -51 -1 -93 1 -93 4 0 24 110 31 155 10z m319 -51 c23
-9 23 -109 0 -118 -9 -3 -186 -6 -394 -6 -365 0 -380 1 -390 19 -15 29 -12 77
6 95 13 14 63 16 389 16 205 0 380 -3 389 -6z m-573 -203 c37 -53 116 -91 188
-91 73 1 127 26 178 84 22 25 48 46 57 46 20 0 20 -4 1 -39 -41 -81 -155 -137
-259 -129 -94 8 -182 63 -222 141 -14 26 -13 27 8 27 15 -1 32 -14 49 -39z
m349 31 c0 -15 -44 -51 -82 -67 -77 -32 -171 -12 -227 49 l-24 26 166 0 c92 0
167 -4 167 -8z"/>
<path d="M10362 11804 c-27 -18 -28 -45 -4 -67 25 -23 48 -21 66 5 20 29 20
34 -4 58 -24 24 -29 24 -58 4z m33 -34 c3 -5 1 -10 -4 -10 -6 0 -11 5 -11 10
0 6 2 10 4 10 3 0 8 -4 11 -10z"/>
<path d="M10962 11804 c-27 -18 -28 -45 -4 -67 25 -23 48 -21 66 5 20 29 20
34 -4 58 -24 24 -29 24 -58 4z m38 -34 c0 -5 -4 -10 -10 -10 -5 0 -10 5 -10
10 0 6 5 10 10 10 6 0 10 -4 10 -10z"/>
<path d="M10955 5885 c-30 -29 -32 -74 -6 -106 18 -22 28 -24 130 -27 107 -4
111 -3 136 22 35 35 34 87 -1 115 -23 18 -41 21 -131 21 -97 0 -106 -2 -128
-25z m205 -25 c0 -19 -41 -30 -114 -30 -76 0 -87 5 -64 28 15 15 178 17 178 2z"/>
<path d="M10975 5708 c-51 -29 -60 -84 -20 -123 22 -23 31 -25 128 -25 90 0
108 3 131 21 20 16 26 29 26 59 0 30 -6 43 -26 59 -23 18 -40 21 -123 21 -53
0 -105 -6 -116 -12z m185 -36 c0 -23 -30 -32 -107 -32 -82 0 -94 5 -71 28 13
13 178 17 178 4z"/>
<path d="M10984 5521 c-29 -12 -54 -50 -54 -79 0 -12 11 -34 25 -47 23 -24 31
-25 133 -25 101 0 110 2 130 23 27 29 28 77 3 108 -18 22 -28 24 -118 26 -54
2 -108 -1 -119 -6z m176 -39 c0 -23 -30 -32 -107 -32 -82 0 -94 5 -71 28 13
13 178 17 178 4z"/>
<path d="M8880 5885 c-33 -35 -31 -81 4 -112 24 -21 37 -23 121 -23 107 0 139
10 156 51 15 37 -2 82 -37 98 -14 6 -69 11 -123 11 -91 0 -99 -2 -121 -25z
m238 -27 c23 -23 11 -28 -71 -28 -77 0 -107 9 -107 32 0 13 165 9 178 -4z"/>
<path d="M8884 5697 c-20 -17 -27 -33 -27 -57 0 -24 7 -40 27 -57 24 -21 37
-23 126 -23 115 0 126 3 145 41 21 40 19 57 -14 90 -29 28 -32 29 -130 29 -90
0 -102 -2 -127 -23z m234 -29 c23 -23 11 -28 -67 -28 -88 0 -111 5 -111 26 0
18 160 20 178 2z"/>
<path d="M8892 5515 c-32 -23 -44 -59 -31 -92 17 -46 36 -52 152 -53 101 0
109 1 132 25 32 31 32 66 1 102 -23 27 -28 28 -128 31 -83 3 -107 0 -126 -13z
m219 -35 c37 -21 18 -30 -60 -30 -88 0 -111 5 -111 26 0 11 18 14 76 14 41 0
84 -5 95 -10z"/>
<path d="M7935 11762 c-149 -44 -305 -170 -373 -299 -70 -133 -89 -293 -52
-437 28 -111 74 -189 160 -277 117 -119 260 -179 425 -179 244 1 456 136 555
355 122 270 32 589 -213 753 -110 73 -177 94 -322 98 -94 3 -133 0 -180 -14z
m314 -39 c202 -56 363 -228 405 -435 20 -95 20 -134 1 -223 -24 -115 -75 -207
-158 -289 -120 -119 -235 -166 -407 -166 -78 0 -109 5 -177 29 -233 81 -383
292 -383 538 0 374 359 647 719 546z"/>
<path d="M7995 11606 c-220 -53 -370 -273 -336 -491 30 -193 175 -341 370
-377 128 -24 269 21 370 117 103 98 148 214 138 358 -18 265 -282 456 -542
393z m145 -101 c0 -60 3 -75 15 -75 12 0 15 14 15 70 0 53 3 70 14 70 21 0 33
-22 29 -57 l-3 -33 79 0 c77 0 80 -1 107 -32 20 -25 23 -34 12 -36 -9 -2 -15
-14 -15 -32 0 -27 4 -30 36 -32 l36 -1 -37 -4 c-58 -6 -50 -33 10 -35 l47 -2
-48 -3 c-62 -5 -58 -27 6 -31 33 -2 47 -7 47 -18 0 -9 -11 -14 -31 -14 l-31 0
3 -82 c3 -80 3 -83 -20 -86 -17 -3 -22 -9 -18 -22 3 -11 -5 -27 -19 -41 l-24
-22 0 41 c0 31 -4 42 -15 42 -11 0 -15 -13 -17 -52 l-2 -53 -3 51 c-4 49 -5
51 -33 51 l-30 0 -2 -71 -2 -71 -3 73 c-3 55 -7 72 -18 72 -20 0 -22 -136 -2
-143 18 -6 -88 -27 -131 -26 -20 1 -50 4 -67 8 -29 6 -30 8 -35 75 -7 96 -29
102 -32 9 l-2 -68 -3 68 c-3 50 -8 67 -18 67 -11 0 -15 -15 -17 -57 l-2 -58
-3 57 -4 58 -32 -3 c-27 -2 -33 -7 -35 -31 -3 -27 -4 -27 -23 -10 -10 9 -19
24 -19 33 0 9 -10 21 -21 26 -28 13 -25 30 4 30 20 0 22 4 22 65 l0 65 -32 3
-33 3 -2 -53 -2 -53 -3 53 c-3 38 -8 52 -19 52 -9 0 -14 6 -12 13 3 6 25 13
51 15 33 2 47 7 47 18 0 10 -13 15 -42 16 l-43 1 43 4 c55 5 59 32 5 35 l-38
1 38 4 c33 4 37 7 37 33 0 15 -6 30 -12 33 -9 3 -1 17 22 41 19 20 36 32 38
26 2 -5 32 -10 68 -10 50 0 64 3 64 15 0 11 -14 15 -57 17 l-58 2 58 3 c52 4
57 6 57 27 0 22 16 36 41 36 5 0 9 -31 9 -68 l0 -68 50 -1 50 -1 0 68 0 68
-36 0 c-19 0 -38 3 -41 6 -4 3 15 6 40 6 l47 0 0 -75z"/>
<path d="M8210 11455 c0 -12 14 -15 70 -15 56 0 70 3 70 15 0 12 -14 15 -70
15 -56 0 -70 -3 -70 -15z"/>
<path d="M7850 11445 c0 -12 14 -15 65 -15 51 0 65 3 65 15 0 12 -14 15 -65
15 -51 0 -65 -3 -65 -15z"/>
<path d="M8210 11340 c0 -56 3 -70 15 -70 12 0 15 14 15 70 0 56 -3 70 -15 70
-12 0 -15 -14 -15 -70z"/>
<path d="M8250 11342 l0 -69 30 0 30 0 0 69 0 68 -30 0 -30 0 0 -68z"/>
<path d="M8320 11340 c0 -56 3 -70 15 -70 12 0 15 14 15 70 0 56 -3 70 -15 70
-12 0 -15 -14 -15 -70z"/>
<path d="M7842 11333 l3 -67 33 -2 32 -2 0 69 0 69 -35 0 -36 0 3 -67z"/>
<path d="M7920 11330 c0 -56 3 -70 15 -70 12 0 15 14 15 70 0 56 -3 70 -15 70
-12 0 -15 -14 -15 -70z"/>
<path d="M7960 11329 c0 -52 3 -70 13 -67 7 3 13 29 15 71 2 55 0 67 -13 67
-12 0 -15 -14 -15 -71z"/>
<path d="M8030 11385 c0 -12 14 -15 70 -15 56 0 70 3 70 15 0 12 -14 15 -70
15 -56 0 -70 -3 -70 -15z"/>
<path d="M8030 11330 l0 -30 68 0 69 0 0 30 0 30 -69 0 -68 0 0 -30z"/>
<path d="M8030 11275 c0 -12 14 -15 70 -15 56 0 70 3 70 15 0 12 -14 15 -70
15 -56 0 -70 -3 -70 -15z"/>
<path d="M8210 11225 c0 -12 14 -15 70 -15 56 0 70 3 70 15 0 12 -14 15 -70
15 -56 0 -70 -3 -70 -15z"/>
<path d="M8390 11170 c0 -56 3 -70 15 -70 12 0 15 14 15 70 0 56 -3 70 -15 70
-12 0 -15 -14 -15 -70z"/>
<path d="M7850 11180 l0 -50 65 0 65 0 0 50 0 50 -65 0 -65 0 0 -50z"/>
<path d="M8030 11158 l0 -68 50 1 50 2 0 67 0 68 -50 -1 -50 -1 0 -68z"/>
<path d="M8140 11160 c0 -56 3 -70 15 -70 12 0 15 14 15 70 0 56 -3 70 -15 70
-12 0 -15 -14 -15 -70z"/>
<path d="M8211 11150 l2 -50 67 0 67 0 0 50 0 50 -68 0 -69 0 1 -50z"/>
<path d="M7850 11105 c0 -12 14 -15 65 -15 51 0 65 3 65 15 0 12 -14 15 -65
15 -51 0 -65 -3 -65 -15z"/>
<path d="M8030 11045 c0 -12 14 -15 71 -15 52 0 70 3 67 13 -3 7 -29 13 -71
15 -55 2 -67 0 -67 -13z"/>
<path d="M8031 10970 l-1 -50 68 0 68 0 0 50 0 50 -67 0 -66 0 -2 -50z"/>
<path d="M7971 10465 c-135 -30 -270 -114 -349 -217 -192 -250 -172 -588 50
-809 107 -107 275 -178 421 -179 78 0 197 29 277 68 100 48 221 168 267 264
89 180 89 377 0 557 -39 80 -157 203 -237 248 -126 71 -297 98 -429 68z m310
-57 c97 -36 156 -73 224 -142 108 -110 159 -237 159 -396 0 -159 -51 -286
-159 -396 -177 -179 -435 -223 -664 -112 -90 44 -207 160 -249 248 -113 233
-73 481 107 661 82 82 159 126 267 154 86 22 230 14 315 -17z"/>
<path d="M7954 10291 c-337 -123 -407 -562 -124 -775 88 -66 168 -89 288 -84
83 3 107 8 164 35 343 161 343 644 0 806 -60 28 -78 32 -172 34 -82 2 -116 -1
-156 -16z m251 -36 c22 -7 32 -13 23 -14 -10 -1 -18 -8 -18 -16 0 -11 14 -15
58 -17 l57 -2 -57 -3 c-57 -4 -58 -5 -58 -33 l0 -30 71 0 c58 0 70 3 66 15
-12 29 10 24 43 -10 26 -26 30 -35 17 -35 -29 0 -19 -30 11 -31 l27 -2 -26 -4
c-25 -4 -27 -7 -26 -54 l1 -49 48 0 c41 0 48 -3 48 -20 0 -16 -7 -20 -30 -20
l-30 0 0 -65 c0 -36 4 -65 10 -65 19 0 -2 -29 -23 -32 -15 -2 -22 -10 -23 -26
-1 -13 -11 -33 -23 -45 l-21 -21 0 42 c0 31 -4 42 -15 42 -11 0 -15 -13 -17
-52 l-2 -53 -3 53 c-4 50 -5 52 -34 52 l-29 0 0 -70 c0 -67 -1 -71 -27 -82
-37 -15 -211 -15 -245 0 -26 11 -28 15 -28 77 0 51 -3 65 -15 65 -11 0 -15
-14 -17 -57 l-2 -58 -3 58 -4 57 -34 0 c-33 0 -35 -2 -35 -32 0 -30 0 -31 -20
-13 -11 10 -20 28 -20 41 0 16 -7 24 -22 26 -35 5 -34 28 1 28 l31 0 0 65 0
65 -35 0 -35 0 -2 -57 -2 -58 -3 58 c-3 43 -8 57 -19 57 -9 0 -14 7 -12 18 2
13 15 18 51 20 l47 3 0 50 c0 46 -1 49 -27 50 l-28 2 28 4 c26 4 38 28 17 35
-6 2 4 19 22 38 l33 35 3 -27 c3 -27 5 -28 68 -28 l64 0 0 50 c0 48 -1 50 -27
51 -20 1 -23 3 -8 6 11 2 29 8 40 13 38 16 50 18 115 18 36 0 83 -5 105 -13z"/>
<path d="M8030 10195 l0 -65 50 0 50 0 0 65 0 65 -50 0 -50 0 0 -65z"/>
<path d="M8140 10195 c0 -51 3 -65 15 -65 12 0 15 14 15 65 0 51 -3 65 -15 65
-12 0 -15 -14 -15 -65z"/>
<path d="M8030 10065 l0 -35 69 0 69 0 -2 33 -2 32 -67 3 -67 3 0 -36z"/>
<path d="M8210 10035 c0 -51 3 -65 15 -65 12 0 15 14 15 65 0 51 -3 65 -15 65
-12 0 -15 -14 -15 -65z"/>
<path d="M8250 10035 l0 -65 30 0 30 0 0 65 0 65 -30 0 -30 0 0 -65z"/>
<path d="M8320 10035 c0 -51 3 -65 15 -65 12 0 15 14 15 65 0 51 -3 65 -15 65
-12 0 -15 -14 -15 -65z"/>
<path d="M7840 10025 l0 -65 35 0 35 0 0 65 0 65 -35 0 -35 0 0 -65z"/>
<path d="M7920 10025 c0 -51 3 -65 15 -65 12 0 15 14 15 65 0 51 -3 65 -15 65
-12 0 -15 -14 -15 -65z"/>
<path d="M7960 10025 c0 -51 3 -65 15 -65 12 0 15 14 15 65 0 51 -3 65 -15 65
-12 0 -15 -14 -15 -65z"/>
<path d="M8032 9985 l0 -36 66 3 66 3 2 33 2 32 -68 0 -68 0 0 -35z"/>
<path d="M8218 9933 c-3 -4 -5 -20 -6 -35 l-2 -28 70 0 70 0 -3 33 c-2 32 -2
32 -64 35 -34 2 -63 -1 -65 -5z"/>
<path d="M7850 9915 c0 -12 14 -15 65 -15 51 0 65 3 65 15 0 12 -14 15 -65 15
-51 0 -65 -3 -65 -15z"/>
<path d="M8390 9865 c0 -51 3 -65 15 -65 12 0 15 14 15 65 0 51 -3 65 -15 65
-12 0 -15 -14 -15 -65z"/>
<path d="M8030 9855 l0 -65 50 0 50 0 0 65 0 65 -50 0 -50 0 0 -65z"/>
<path d="M8140 9855 c0 -51 3 -65 15 -65 12 0 15 14 15 65 0 51 -3 65 -15 65
-12 0 -15 -14 -15 -65z"/>
<path d="M7850 9875 c0 -12 14 -15 65 -15 51 0 65 3 65 15 0 12 -14 15 -65 15
-51 0 -65 -3 -65 -15z"/>
<path d="M8210 9845 c0 -12 14 -15 70 -15 56 0 70 3 70 15 0 12 -14 15 -70 15
-56 0 -70 -3 -70 -15z"/>
<path d="M7850 9815 l0 -35 65 0 65 0 0 35 0 35 -65 0 -65 0 0 -35z"/>
<path d="M8210 9805 c0 -12 14 -15 70 -15 56 0 70 3 70 15 0 12 -14 15 -70 15
-56 0 -70 -3 -70 -15z"/>
<path d="M8210 9695 c0 -51 3 -65 15 -65 12 0 15 14 15 65 0 51 -3 65 -15 65
-12 0 -15 -14 -15 -65z"/>
<path d="M7960 9685 c0 -51 3 -65 15 -65 12 0 15 14 15 65 0 51 -3 65 -15 65
-12 0 -15 -14 -15 -65z"/>
<path d="M8031 9700 l2 -50 66 0 67 0 0 50 0 50 -68 0 -68 0 1 -50z"/>
<path d="M8030 9625 c0 -13 12 -15 67 -13 42 2 68 8 71 16 3 9 -15 12 -67 12
-57 0 -71 -3 -71 -15z"/>
<path d="M7935 9162 c-154 -47 -304 -167 -373 -299 -70 -133 -89 -293 -52
-437 28 -112 73 -189 160 -277 119 -119 261 -179 425 -179 243 1 456 137 555
355 75 166 71 364 -10 526 -66 130 -203 250 -341 299 -90 31 -278 38 -364 12z
m315 -39 c147 -40 292 -160 357 -294 33 -68 63 -191 63 -256 0 -66 -29 -175
-65 -251 -26 -55 -54 -93 -108 -146 -126 -125 -247 -171 -427 -163 -123 5
-190 27 -292 94 -113 74 -197 194 -233 333 -23 89 -16 242 15 325 108 285 402
438 690 358z"/>
<path d="M7997 9009 c-218 -51 -372 -277 -338 -494 30 -196 178 -344 376 -377
135 -23 279 27 377 130 97 101 135 206 125 345 -18 262 -283 456 -540 396z
m145 -104 c-3 -63 -1 -75 12 -75 13 0 16 13 16 70 0 53 3 70 14 70 22 0 33
-22 29 -58 l-3 -33 77 2 c75 2 77 2 107 -32 23 -26 27 -35 15 -37 -10 -2 -16
-14 -16 -32 0 -27 4 -30 36 -32 l36 -1 -37 -4 c-58 -6 -50 -33 10 -35 l47 -2
-48 -3 c-62 -5 -58 -27 6 -31 33 -2 47 -7 47 -18 0 -9 -11 -14 -31 -14 l-31 0
3 -82 c3 -79 3 -83 -19 -86 -15 -2 -22 -10 -22 -26 0 -13 -9 -31 -20 -41 -20
-18 -20 -17 -20 23 0 31 -4 42 -15 42 -11 0 -15 -13 -17 -52 l-2 -53 -3 51
c-4 49 -5 51 -33 51 l-30 0 -2 -71 -2 -71 -3 73 c-3 55 -7 72 -18 72 -20 0
-22 -136 -2 -143 26 -9 -109 -29 -159 -23 -81 9 -79 8 -76 86 3 59 1 70 -12
70 -13 0 -16 -13 -18 -67 l-2 -68 -3 68 c-3 50 -8 67 -18 67 -11 0 -15 -15
-17 -57 l-2 -58 -3 57 -4 58 -32 -3 c-27 -2 -33 -7 -35 -31 -3 -27 -4 -27 -23
-10 -10 9 -19 24 -19 33 0 9 -10 21 -21 26 -28 13 -25 30 4 30 20 0 22 4 22
65 l0 65 -32 3 -33 3 -2 -53 -2 -53 -3 53 c-3 38 -8 52 -19 52 -9 0 -14 6 -12
13 3 6 25 13 51 15 33 2 47 7 47 18 0 10 -13 15 -42 16 l-43 1 43 4 c55 5 59
32 5 35 l-38 1 38 4 c33 4 37 7 37 33 0 15 -6 30 -12 33 -9 3 -1 17 22 41 19
20 36 32 38 26 2 -5 32 -10 68 -10 50 0 64 3 64 15 0 11 -14 15 -57 17 l-58 2
58 3 c52 4 57 6 57 27 0 22 16 36 41 36 5 0 9 -31 9 -68 l0 -68 50 -1 50 -1 0
68 0 68 -36 0 c-19 0 -38 3 -41 6 -4 3 16 6 43 6 l49 0 -3 -75z"/>
<path d="M8210 8855 c0 -12 14 -15 70 -15 56 0 70 3 70 15 0 12 -14 15 -70 15
-56 0 -70 -3 -70 -15z"/>
<path d="M7850 8845 c0 -12 14 -15 65 -15 51 0 65 3 65 15 0 12 -14 15 -65 15
-51 0 -65 -3 -65 -15z"/>
<path d="M8210 8740 c0 -56 3 -70 15 -70 12 0 15 14 15 70 0 56 -3 70 -15 70
-12 0 -15 -14 -15 -70z"/>
<path d="M8250 8742 l0 -69 30 0 30 0 0 69 0 68 -30 0 -30 0 0 -68z"/>
<path d="M8320 8740 c0 -56 3 -70 15 -70 12 0 15 14 15 70 0 56 -3 70 -15 70
-12 0 -15 -14 -15 -70z"/>
<path d="M7840 8735 l0 -65 35 0 35 0 0 65 0 65 -35 0 -35 0 0 -65z"/>
<path d="M7920 8735 c0 -51 3 -65 15 -65 12 0 15 14 15 65 0 51 -3 65 -15 65
-12 0 -15 -14 -15 -65z"/>
<path d="M7960 8735 c0 -51 3 -65 15 -65 12 0 15 14 15 65 0 51 -3 65 -15 65
-12 0 -15 -14 -15 -65z"/>
<path d="M8030 8785 c0 -12 14 -15 70 -15 56 0 70 3 70 15 0 12 -14 15 -70 15
-56 0 -70 -3 -70 -15z"/>
<path d="M8030 8730 l0 -30 68 0 69 0 0 30 0 30 -69 0 -68 0 0 -30z"/>
<path d="M8030 8675 c0 -12 14 -15 70 -15 56 0 70 3 70 15 0 12 -14 15 -70 15
-56 0 -70 -3 -70 -15z"/>
<path d="M8210 8625 c0 -12 14 -15 70 -15 56 0 70 3 70 15 0 12 -14 15 -70 15
-56 0 -70 -3 -70 -15z"/>
<path d="M8390 8570 c0 -56 3 -70 15 -70 12 0 15 14 15 70 0 56 -3 70 -15 70
-12 0 -15 -14 -15 -70z"/>
<path d="M7850 8580 l0 -50 65 0 65 0 0 50 0 50 -65 0 -65 0 0 -50z"/>
<path d="M8030 8558 l0 -68 50 1 50 2 0 67 0 68 -50 -1 -50 -1 0 -68z"/>
<path d="M8140 8560 c0 -56 3 -70 15 -70 12 0 15 14 15 70 0 56 -3 70 -15 70
-12 0 -15 -14 -15 -70z"/>
<path d="M8210 8570 l0 -30 68 0 69 0 1 30 1 30 -70 0 -69 0 0 -30z"/>
<path d="M8210 8515 c0 -12 14 -15 70 -15 56 0 70 3 70 15 0 12 -14 15 -70 15
-56 0 -70 -3 -70 -15z"/>
<path d="M7850 8505 c0 -12 14 -15 65 -15 51 0 65 3 65 15 0 12 -14 15 -65 15
-51 0 -65 -3 -65 -15z"/>
<path d="M8030 8445 c0 -12 14 -15 71 -15 52 0 70 3 67 13 -3 7 -29 13 -71 15
-55 2 -67 0 -67 -13z"/>
<path d="M8031 8370 l-1 -50 68 0 68 0 0 50 0 50 -67 0 -66 0 -2 -50z"/>
<path d="M11509 9812 c-91 -59 -114 -87 -128 -153 -14 -65 -14 -204 0 -269 12
-57 49 -107 91 -125 l29 -12 -39 -26 c-21 -15 -49 -46 -63 -70 -22 -39 -24
-52 -24 -187 0 -133 2 -148 23 -185 32 -55 80 -87 135 -87 51 -1 81 12 161 71
84 63 96 93 96 263 0 75 -5 149 -11 165 -12 34 -44 69 -82 93 l-27 17 39 26
c66 44 81 90 81 252 0 120 -3 144 -21 182 -28 57 -70 86 -133 91 -47 4 -56 0
-127 -46z m199 -26 l37 -34 3 -154 c3 -146 2 -155 -20 -187 -33 -48 -126 -111
-175 -118 -56 -7 -100 17 -124 70 -25 56 -27 256 -3 317 24 59 140 140 201
140 35 0 50 -6 81 -34z m-27 -531 c59 -31 69 -64 69 -223 0 -172 -4 -182 -103
-250 -76 -52 -123 -60 -170 -29 -51 33 -62 62 -66 179 -5 161 2 195 53 244 45
43 137 94 168 94 11 0 32 -7 49 -15z"/>
<path d="M11548 9719 c-72 -49 -81 -77 -76 -221 2 -87 6 -110 22 -127 27 -29
60 -26 113 11 86 58 83 52 83 203 0 122 -2 137 -20 155 -29 29 -58 24 -122
-21z m58 -164 c-5 -17 -74 -75 -90 -75 -9 0 -7 153 2 166 4 6 25 23 47 37 l40
27 3 -67 c2 -37 1 -77 -2 -88z"/>
<path d="M11565 9176 c-87 -59 -89 -63 -93 -190 -4 -122 4 -156 42 -182 25
-15 28 -15 73 12 27 15 60 40 76 55 27 27 27 28 27 163 0 133 0 135 -26 155
-35 28 -41 27 -99 -13z m40 -173 c-3 -12 -25 -36 -50 -53 l-45 -31 0 79 c0 86
6 99 60 136 l35 24 3 -66 c2 -37 1 -77 -3 -89z"/>
<path d="M13021 9478 c-208 -36 -240 -321 -47 -420 57 -29 158 -23 214 15 109
71 133 230 51 330 -52 63 -132 90 -218 75z m91 -38 c46 -13 59 -35 60 -99 0
-124 -112 -213 -230 -182 -32 9 -42 18 -51 43 -16 45 -13 87 8 133 23 50 58
83 108 100 47 17 58 18 105 5z"/>
<path d="M12996 8856 c-57 -21 -87 -46 -121 -101 -89 -143 21 -335 190 -335
192 0 297 236 167 373 -60 63 -162 90 -236 63z m156 -56 c12 -15 18 -39 18
-77 0 -109 -74 -183 -182 -183 -70 0 -97 20 -105 75 -8 59 12 116 54 158 44
44 81 57 147 53 37 -3 54 -9 68 -26z"/>
<path d="M12130 10269 c-14 -26 11 -69 40 -69 20 0 50 25 50 41 0 47 -69 69
-90 28z"/>
<path d="M12641 10268 c-15 -41 14 -74 54 -64 29 7 43 49 25 71 -20 24 -69 19
-79 -7z m49 -18 c0 -5 -5 -10 -11 -10 -5 0 -7 5 -4 10 3 6 8 10 11 10 2 0 4
-4 4 -10z"/>
<path d="M12140 9980 c-24 -24 -24 -29 -4 -58 18 -27 45 -28 67 -4 23 25 21
48 -5 66 -29 20 -34 20 -58 -4z m40 -30 c0 -5 -4 -10 -10 -10 -5 0 -10 5 -10
10 0 6 5 10 10 10 6 0 10 -4 10 -10z"/>
<path d="M12658 9988 c-24 -20 -28 -44 -12 -67 19 -26 45 -27 67 -3 23 25 21
48 -5 66 -27 19 -30 19 -50 4z m32 -38 c0 -5 -5 -10 -11 -10 -5 0 -7 5 -4 10
3 6 8 10 11 10 2 0 4 -4 4 -10z"/>
<path d="M9861 9675 c-37 -17 -172 -144 -232 -218 l-39 -49 0 -1259 c0 -1073
2 -1264 14 -1287 22 -40 227 -239 259 -251 37 -14 337 -14 373 0 37 13 239
213 259 255 13 28 15 176 15 1279 0 1061 -2 1250 -14 1273 -22 40 -237 249
-269 261 -44 17 -325 13 -366 -4z m367 -39 c15 -8 75 -63 135 -124 l107 -109
0 -1259 0 -1258 -123 -123 -123 -123 -167 0 c-124 0 -175 4 -195 14 -15 8 -72
61 -128 118 -73 75 -102 112 -107 137 -12 58 -8 2446 4 2478 11 31 213 240
244 253 36 15 322 12 353 -4z"/>
<path d="M10042 9588 c-7 -7 -12 -21 -12 -33 0 -12 5 -26 12 -33 7 -7 21 -12
33 -12 12 0 26 5 33 12 7 7 12 21 12 33 0 12 -5 26 -12 33 -7 7 -21 12 -33 12
-12 0 -26 -5 -33 -12z"/>
<path d="M9665 9420 c-27 -30 -7 -70 34 -70 45 0 66 44 35 74 -21 22 -47 20
-69 -4z"/>
<path d="M10366 9424 c-19 -18 -20 -28 -6 -55 21 -39 90 -16 90 30 0 16 -30
41 -50 41 -10 0 -26 -7 -34 -16z"/>
<path d="M9905 9411 c-91 -42 -115 -97 -115 -262 0 -117 -1 -123 -25 -145 -18
-16 -25 -34 -25 -59 0 -25 7 -41 25 -57 25 -22 25 -22 25 -201 l0 -179 -25
-20 c-18 -14 -25 -29 -25 -54 0 -24 8 -42 25 -58 25 -23 25 -24 25 -201 0
-177 0 -177 -25 -197 -19 -15 -25 -29 -25 -58 0 -29 6 -43 25 -58 25 -20 25
-20 25 -197 0 -177 0 -178 -25 -201 -34 -31 -34 -86 -1 -117 23 -21 24 -29 28
-167 3 -137 5 -148 30 -192 48 -81 142 -138 228 -138 62 0 132 31 180 80 65
64 80 116 80 275 0 117 1 122 25 145 16 15 25 34 25 55 0 21 -9 40 -25 55 -25
23 -25 25 -25 201 0 177 0 178 25 203 16 16 25 36 25 56 0 20 -9 39 -25 54
-25 23 -25 24 -25 201 0 177 0 178 25 201 16 15 25 34 25 54 0 20 -9 40 -25
56 -25 25 -25 26 -25 206 l0 180 25 20 c18 14 25 29 25 54 0 24 -8 42 -25 58
-24 22 -25 29 -25 137 0 63 -5 132 -11 154 -14 51 -73 110 -124 124 -66 18
-223 14 -270 -8z m296 -174 c48 -32 69 -79 69 -154 l0 -63 -220 0 -220 0 0 68
c0 78 20 120 72 152 28 17 51 20 149 20 104 0 120 -2 150 -23z m114 -292 l0
-30 -265 0 c-247 0 -265 1 -268 18 -9 48 -9 48 270 45 l263 -3 0 -30z m-45
-305 l0 -130 -220 0 -220 0 0 130 0 130 220 0 220 0 0 -130z m45 -205 l0 -30
-267 -3 -268 -2 0 28 c0 16 3 32 7 35 4 4 124 6 267 5 l261 -3 0 -30z m-45
-310 l0 -135 -220 0 -220 0 0 135 0 135 220 0 220 0 0 -135z m38 -177 c21 -21
14 -57 -10 -63 -13 -3 -133 -4 -268 -3 l-245 3 -3 29 c-2 16 2 32 10 37 22 14
502 11 516 -3z m-38 -338 l0 -130 -220 0 -220 0 0 130 0 130 220 0 220 0 0
-130z m45 -205 l0 -30 -265 0 c-247 0 -265 1 -268 18 -9 48 -9 48 270 45 l263
-3 0 -30z m-47 -267 c-5 -102 -17 -135 -69 -186 -103 -101 -276 -72 -341 57
-24 47 -28 67 -28 138 l0 83 221 0 221 0 -4 -92z"/>
<path d="M9665 6926 c-18 -26 -11 -52 16 -67 43 -22 86 36 53 72 -23 26 -50
24 -69 -5z m45 -26 c0 -5 -4 -10 -10 -10 -5 0 -10 5 -10 10 0 6 5 10 10 10 6
0 10 -4 10 -10z"/>
<path d="M10366 6931 c-33 -37 10 -94 53 -71 43 22 28 90 -19 90 -9 0 -25 -9
-34 -19z m44 -31 c0 -5 -4 -10 -10 -10 -5 0 -10 5 -10 10 0 6 5 10 10 10 6 0
10 -4 10 -10z"/>
<path d="M10041 6746 c-7 -8 -11 -27 -9 -43 2 -22 9 -29 31 -31 50 -6 75 38
41 72 -19 20 -48 20 -63 2z m39 -36 c0 -5 -2 -10 -4 -10 -3 0 -8 5 -11 10 -3
6 -1 10 4 10 6 0 11 -4 11 -10z"/>
<path d="M5464 9086 l-34 -34 0 -435 c0 -417 1 -435 20 -459 35 -45 62 -49
284 -46 l208 3 28 32 c18 20 31 48 35 75 3 24 5 219 3 433 -3 353 -5 392 -21
416 -30 45 -54 49 -278 49 l-211 0 -34 -34z m486 -33 c20 -26 21 -33 18 -446
l-3 -419 -24 -19 c-21 -17 -41 -19 -227 -19 -191 0 -205 1 -224 20 -19 19 -20
33 -20 447 0 383 2 428 17 445 15 16 35 18 229 18 l213 0 21 -27z"/>
<path d="M5766 9017 c-26 -26 -26 -28 -26 -182 0 -142 2 -157 20 -175 13 -13
33 -20 60 -20 27 0 47 7 60 20 18 18 20 33 20 174 0 174 -6 192 -72 202 -30 5
-41 2 -62 -19z m82 -25 c9 -7 12 -39 10 -128 l-3 -119 -35 0 -35 0 -3 114 c-1
63 0 121 2 128 6 14 44 17 64 5z"/>
<path d="M5760 8580 c-18 -18 -20 -33 -20 -173 0 -185 5 -197 80 -197 77 0 82
14 78 205 -3 141 -5 158 -22 171 -29 21 -92 18 -116 -6z m95 -145 l0 -120 -35
0 -35 0 -3 109 c-1 61 0 116 3 123 3 9 17 13 37 11 l33 -3 0 -120z"/>
<path d="M11930 6806 c0 -29 24 -56 51 -56 10 0 19 -7 19 -15 0 -8 7 -15 15
-15 8 0 15 7 15 15 0 12 14 15 70 15 68 0 70 1 70 25 0 24 -2 25 -70 25 -56 0
-70 3 -70 15 0 8 -7 15 -15 15 -8 0 -15 -7 -15 -15 0 -8 -7 -15 -15 -15 -8 0
-15 7 -15 15 0 8 -9 15 -20 15 -15 0 -20 -7 -20 -24z"/>
<path d="M11932 6678 c2 -26 10 -36 35 -48 18 -8 33 -21 33 -27 0 -7 7 -13 15
-13 8 0 15 7 15 15 0 12 14 15 70 15 68 0 70 1 70 25 0 24 -2 25 -70 25 -63 0
-70 2 -70 20 0 11 -7 20 -15 20 -8 0 -15 -9 -15 -20 0 -11 -5 -20 -11 -20 -6
0 -13 9 -16 20 -3 11 -14 20 -25 20 -16 0 -19 -6 -16 -32z"/>
<path d="M11930 6545 c0 -18 5 -25 20 -25 15 0 20 7 20 25 0 18 -5 25 -20 25
-15 0 -20 -7 -20 -25z"/>
<path d="M12000 6545 c0 -25 1 -25 85 -25 84 0 85 0 85 25 0 25 -1 25 -85 25
-84 0 -85 0 -85 -25z"/>
<path d="M12003 6454 c-13 -21 -15 -32 -6 -55 11 -29 11 -29 -28 -29 -35 0
-39 -3 -39 -25 l0 -25 120 0 120 0 0 25 c0 24 -2 25 -64 25 -48 0 -65 4 -70
15 -13 34 4 45 70 45 62 0 64 1 64 25 0 24 -2 25 -75 25 -69 0 -76 -2 -92 -26z"/>
<path d="M12024 6272 c-22 -14 -36 -54 -30 -87 8 -42 35 -65 83 -72 50 -7 91
25 99 77 7 41 -24 90 -57 90 -26 0 -25 -36 2 -50 51 -28 -11 -87 -66 -62 -28
13 -34 49 -10 58 8 4 15 17 15 30 0 24 -15 30 -36 16z"/>
<path d="M12087 6073 c-8 -10 -19 -33 -24 -52 -11 -42 -33 -53 -33 -17 0 14 5
26 10 26 6 0 10 11 10 25 0 28 -21 33 -39 11 -40 -48 -15 -140 36 -134 28 3
34 11 58 71 8 21 19 36 25 32 15 -10 12 -55 -5 -61 -8 -4 -15 -14 -15 -24 0
-54 59 -14 67 45 9 69 -51 121 -90 78z"/>
<path d="M11990 5897 c0 -7 7 -23 16 -35 8 -12 10 -22 5 -22 -6 0 -11 -11 -11
-25 0 -25 1 -25 85 -25 84 0 85 0 85 25 0 22 -4 25 -37 25 -63 0 -83 10 -90
41 -4 22 -11 29 -29 29 -13 0 -24 -6 -24 -13z"/>
<path d="M12034 5748 c-23 -11 -44 -48 -44 -78 0 -10 12 -32 26 -49 22 -26 33
-31 70 -31 49 0 79 22 90 64 8 34 -7 76 -34 94 -21 14 -22 13 -22 -10 0 -13 5
-29 11 -35 15 -15 3 -63 -16 -63 -12 0 -15 14 -15 60 0 56 -2 60 -22 59 -13 0
-33 -5 -44 -11z m36 -73 c0 -24 -5 -35 -14 -35 -20 0 -30 38 -16 55 20 24 30
17 30 -20z"/>
<path d="M12000 5556 c0 -9 -12 -16 -27 -18 -20 -2 -29 -9 -31 -25 -3 -19 1
-23 23 -23 14 0 28 -7 31 -15 4 -8 12 -15 20 -15 8 0 14 7 14 15 0 12 14 15
65 15 62 0 66 2 76 27 5 14 8 32 5 40 -7 17 -47 17 -43 1 1 -9 -15 -14 -50
-16 -43 -2 -53 0 -53 12 0 9 -7 16 -15 16 -8 0 -15 -6 -15 -14z"/>
<path d="M12000 5426 c0 -9 -12 -16 -27 -18 -20 -2 -29 -9 -31 -25 -3 -19 1
-23 23 -23 14 0 28 -7 31 -15 4 -8 12 -15 20 -15 8 0 14 7 14 15 0 12 14 15
65 15 62 0 66 2 76 27 5 14 8 32 5 40 -7 17 -47 17 -43 1 1 -9 -15 -14 -50
-16 -43 -2 -53 0 -53 12 0 9 -7 16 -15 16 -8 0 -15 -6 -15 -14z"/>
<path d="M12000 5275 c0 -24 2 -25 64 -25 56 0 66 -3 71 -20 10 -33 -3 -40
-71 -40 -62 0 -64 -1 -64 -25 0 -24 2 -25 75 -25 69 0 76 2 92 26 13 21 14 32
6 54 -6 16 -8 40 -6 54 l5 26 -86 0 c-85 0 -86 0 -86 -25z"/>
<path d="M11932 5053 c3 -36 4 -37 82 -63 l78 -26 -81 -28 -81 -28 0 -39 0
-39 120 0 120 0 0 25 c0 24 -2 25 -77 26 -84 0 -83 2 20 40 47 17 57 24 57 44
0 20 -10 27 -72 48 l-73 25 73 1 c70 1 72 2 72 26 l0 25 -121 0 -120 0 3 -37z"/>
<path d="M11984 4663 c-49 -9 -84 -57 -159 -218 -44 -93 -75 -172 -74 -190 0
-45 157 -355 192 -380 23 -16 44 -20 110 -20 118 0 128 9 223 203 102 206 102
199 -2 407 -75 152 -81 161 -124 183 -42 21 -106 27 -166 15z m11 -288 l0 -80
-30 0 -30 0 -3 83 -3 83 33 -3 33 -3 0 -80z m180 0 l0 -80 -32 -3 c-30 -3 -33
-1 -33 22 0 24 -3 26 -45 26 -45 0 -45 0 -45 35 0 35 0 35 45 35 42 0 45 2 45
26 0 23 3 25 33 22 l32 -3 0 -80z m-24 -124 c21 -17 23 -27 24 -102 l0 -84
-78 -3 -78 -3 3 38 c3 37 4 38 46 41 37 3 42 6 42 28 0 23 -3 24 -55 24 l-55
0 0 -65 0 -65 -36 0 -36 0 3 86 c4 76 7 88 28 105 33 27 159 27 192 0z"/>
<path d="M9727 5524 c-82 -25 -121 -77 -206 -265 -41 -90 -164 -350 -273 -577
-109 -227 -196 -417 -193 -422 8 -13 1982 -14 1989 -1 3 5 -71 167 -165 362
-93 194 -213 445 -265 558 -53 113 -101 217 -107 230 -18 37 -69 85 -113 107
-36 17 -65 19 -329 21 -235 2 -299 -1 -338 -13z m648 -43 c63 -29 87 -64 175
-256 45 -99 163 -348 262 -553 99 -205 178 -375 176 -378 -3 -2 -428 -3 -945
-2 l-939 3 133 275 c73 151 192 401 264 555 72 154 143 293 158 309 57 62 77
66 391 66 256 0 289 -2 325 -19z"/>
<path d="M9505 4890 c-20 -39 -33 -75 -30 -80 4 -6 223 -10 575 -10 352 0 571
4 575 10 3 5 -10 41 -30 80 l-35 70 -510 0 -510 0 -35 -70z m983 8 l-15 -23
-415 -3 -414 -2 -24 25 -23 25 452 0 453 0 -14 -22z"/>
<path d="M9411 4691 c-19 -38 -31 -74 -27 -80 11 -17 1333 -16 1339 2 2 6 -12
42 -32 79 l-36 68 -606 0 -605 0 -33 -69z m1167 7 l-15 -23 -505 -3 -504 -2
-24 25 -23 25 542 0 543 0 -14 -22z"/>
<path d="M9350 4560 c-16 -10 -62 -129 -56 -145 5 -13 91 -15 754 -15 528 0
751 3 759 11 8 8 3 29 -19 77 -17 37 -33 68 -37 70 -13 5 -1393 7 -1401 2z
m1340 -37 c0 -4 -10 -17 -22 -30 l-21 -23 -598 0 -598 0 -21 30 -21 30 640 0
c353 0 641 -3 641 -7z"/>
</g>
</svg>
